<svg fill="none" height="1045" viewBox="0 0 1440 1045" width="1440" xmlns="http://www.w3.org/2000/svg"><g opacity=".5"><path d="m45.263 290.35h674.737m-831.488-259.976h831.488m-830.775 129.632h830.775" stroke="#3c4556" stroke-linecap="square" stroke-width=".626"/><path clip-rule="evenodd" d="m45.263-77v391.745zm311.362 106.84v284.905zm155.681 0v284.905zm155.682 0v284.905zm-467.044-106.84v391.745z" fill-rule="evenodd" stroke="#3c4556" stroke-linecap="square" stroke-width=".626"/><path clip-rule="evenodd" d="m45.35 163.107c1.969 0 3.564-1.616 3.564-3.61s-1.595-3.611-3.564-3.611c-1.968 0-3.564 1.617-3.564 3.611s1.596 3.61 3.564 3.61zm0 131.18c1.969 0 3.564-1.617 3.564-3.611s-1.595-3.61-3.564-3.61c-1.968 0-3.564 1.616-3.564 3.61s1.596 3.611 3.564 3.611zm0-259.952c1.969 0 3.564-1.617 3.564-3.61 0-1.995-1.595-3.611-3.564-3.611-1.968 0-3.564 1.616-3.564 3.61s1.596 3.61 3.564 3.61zm155.627 0c1.968 0 3.564-1.617 3.564-3.61 0-1.995-1.596-3.611-3.564-3.611-1.969 0-3.564 1.616-3.564 3.61s1.595 3.61 3.564 3.61zm0 128.772c1.968 0 3.564-1.616 3.564-3.61s-1.596-3.611-3.564-3.611c-1.969 0-3.564 1.617-3.564 3.611s1.595 3.61 3.564 3.61zm0 131.18c1.968 0 3.564-1.617 3.564-3.611s-1.596-3.61-3.564-3.61c-1.969 0-3.564 1.616-3.564 3.61s1.595 3.611 3.564 3.611zm155.626-131.18c1.968 0 3.564-1.616 3.564-3.61s-1.596-3.611-3.564-3.611-3.564 1.617-3.564 3.611 1.596 3.61 3.564 3.61zm0 131.18c1.968 0 3.564-1.617 3.564-3.611s-1.596-3.61-3.564-3.61-3.564 1.616-3.564 3.61 1.596 3.611 3.564 3.611zm0-259.952c1.968 0 3.564-1.617 3.564-3.61 0-1.995-1.596-3.611-3.564-3.611s-3.564 1.616-3.564 3.61 1.596 3.61 3.564 3.61zm155.626 0c1.969 0 3.564-1.617 3.564-3.61 0-1.995-1.595-3.611-3.564-3.611-1.968 0-3.563 1.616-3.563 3.61s1.595 3.61 3.563 3.61zm0 128.772c1.969 0 3.564-1.616 3.564-3.61s-1.595-3.611-3.564-3.611c-1.968 0-3.563 1.617-3.563 3.611s1.595 3.61 3.563 3.61zm0 131.18c1.969 0 3.564-1.617 3.564-3.611s-1.595-3.61-3.564-3.61c-1.968 0-3.563 1.616-3.563 3.61s1.595 3.611 3.563 3.611zm155.627-131.18c1.968 0 3.564-1.616 3.564-3.61s-1.596-3.611-3.564-3.611-3.564 1.617-3.564 3.611 1.596 3.61 3.564 3.61zm0 131.18c1.968 0 3.564-1.617 3.564-3.611s-1.596-3.61-3.564-3.61-3.564 1.616-3.564 3.61 1.596 3.611 3.564 3.611zm0-259.952c1.968 0 3.564-1.617 3.564-3.61 0-1.995-1.596-3.611-3.564-3.611s-3.564 1.616-3.564 3.61 1.596 3.61 3.564 3.61z" fill="#3c4556" fill-rule="evenodd"/><path d="m759.187 292.35h157.462m154.611 0h674.74m-831.488-259.976h831.488m-830.776 129.632h830.776m-1026.001 0h36.338" stroke="#3c4556" stroke-linecap="square" stroke-width=".626"/><g clip-rule="evenodd" fill-rule="evenodd"><path d="m915.937-75v255.703zm0 367.528v24.217zm155.323-367.528v391.745zm311.36 106.84v284.905zm-155.68-106.84v391.745z" stroke="#3c4556" stroke-linecap="square" stroke-width=".626"/><path d="m760.097 165.107c1.968 0 3.564-1.616 3.564-3.61s-1.596-3.611-3.564-3.611-3.564 1.617-3.564 3.611 1.596 3.61 3.564 3.61zm0 131.18c1.968 0 3.564-1.617 3.564-3.611s-1.596-3.61-3.564-3.61-3.564 1.616-3.564 3.61 1.596 3.611 3.564 3.611zm155.626-131.18c1.969 0 3.564-1.616 3.564-3.61s-1.595-3.611-3.564-3.611c-1.968 0-3.564 1.617-3.564 3.611s1.596 3.61 3.564 3.61zm0 131.18c1.969 0 3.564-1.617 3.564-3.611s-1.595-3.61-3.564-3.61c-1.968 0-3.564 1.616-3.564 3.61s1.596 3.611 3.564 3.611zm155.627-131.18c1.97 0 3.56-1.616 3.56-3.61s-1.59-3.611-3.56-3.611-3.56 1.617-3.56 3.611 1.59 3.61 3.56 3.61zm0 131.18c1.97 0 3.56-1.617 3.56-3.611s-1.59-3.61-3.56-3.61-3.56 1.616-3.56 3.61 1.59 3.611 3.56 3.611zm0-259.952c1.97 0 3.56-1.617 3.56-3.61 0-1.995-1.59-3.611-3.56-3.611s-3.56 1.616-3.56 3.61 1.59 3.61 3.56 3.61zm155.63 0c1.96 0 3.56-1.617 3.56-3.61 0-1.995-1.6-3.611-3.56-3.611-1.97 0-3.57 1.616-3.57 3.61s1.6 3.61 3.57 3.61zm0 128.772c1.96 0 3.56-1.616 3.56-3.61s-1.6-3.611-3.56-3.611c-1.97 0-3.57 1.617-3.57 3.611s1.6 3.61 3.57 3.61zm0 131.18c1.96 0 3.56-1.617 3.56-3.611s-1.6-3.61-3.56-3.61c-1.97 0-3.57 1.616-3.57 3.61s1.6 3.611 3.57 3.611zm155.62-131.18c1.97 0 3.57-1.616 3.57-3.61s-1.6-3.611-3.57-3.611-3.56 1.617-3.56 3.611 1.59 3.61 3.56 3.61zm0 131.18c1.97 0 3.57-1.617 3.57-3.611s-1.6-3.61-3.57-3.61-3.56 1.616-3.56 3.61 1.59 3.611 3.56 3.611zm0-259.952c1.97 0 3.57-1.617 3.57-3.61 0-1.995-1.6-3.611-3.57-3.611s-3.56 1.616-3.56 3.61 1.59 3.61 3.56 3.61zm-466.877 0c1.969 0 3.564-1.617 3.564-3.61 0-1.995-1.595-3.611-3.564-3.611-1.968 0-3.564 1.616-3.564 3.61s1.596 3.61 3.564 3.61z" fill="#3c4556"/></g></g><g opacity=".5"><path d="m45.263 684.096h674.737m-831.488-259.977h831.488m-830.775 129.632h830.775" stroke="#3c4556" stroke-linecap="square" stroke-width=".626"/><path clip-rule="evenodd" d="m45.263 316.746v391.745zm311.362 106.839v284.906zm155.681 0v284.906zm155.682 0v284.906zm-467.044-106.839v391.745z" fill-rule="evenodd" stroke="#3c4556" stroke-linecap="square" stroke-width=".626"/><path clip-rule="evenodd" d="m45.35 556.853c1.969 0 3.564-1.617 3.564-3.611s-1.595-3.61-3.564-3.61c-1.968 0-3.564 1.616-3.564 3.61s1.596 3.611 3.564 3.611zm0 131.179c1.969 0 3.564-1.616 3.564-3.61s-1.595-3.611-3.564-3.611c-1.968 0-3.564 1.617-3.564 3.611s1.596 3.61 3.564 3.61zm0-259.952c1.969 0 3.564-1.616 3.564-3.61s-1.595-3.611-3.564-3.611c-1.968 0-3.564 1.617-3.564 3.611s1.596 3.61 3.564 3.61zm155.627 0c1.968 0 3.564-1.616 3.564-3.61s-1.596-3.611-3.564-3.611c-1.969 0-3.564 1.617-3.564 3.611s1.595 3.61 3.564 3.61zm0 128.773c1.968 0 3.564-1.617 3.564-3.611s-1.596-3.61-3.564-3.61c-1.969 0-3.564 1.616-3.564 3.61s1.595 3.611 3.564 3.611zm0 131.179c1.968 0 3.564-1.616 3.564-3.61s-1.596-3.611-3.564-3.611c-1.969 0-3.564 1.617-3.564 3.611s1.595 3.61 3.564 3.61zm155.626-131.179c1.968 0 3.564-1.617 3.564-3.611s-1.596-3.61-3.564-3.61-3.564 1.616-3.564 3.61 1.596 3.611 3.564 3.611zm0 131.179c1.968 0 3.564-1.616 3.564-3.61s-1.596-3.611-3.564-3.611-3.564 1.617-3.564 3.611 1.596 3.61 3.564 3.61zm0-259.952c1.968 0 3.564-1.616 3.564-3.61s-1.596-3.611-3.564-3.611-3.564 1.617-3.564 3.611 1.596 3.61 3.564 3.61zm155.626 0c1.969 0 3.564-1.616 3.564-3.61s-1.595-3.611-3.564-3.611c-1.968 0-3.563 1.617-3.563 3.611s1.595 3.61 3.563 3.61zm0 128.773c1.969 0 3.564-1.617 3.564-3.611s-1.595-3.61-3.564-3.61c-1.968 0-3.563 1.616-3.563 3.61s1.595 3.611 3.563 3.611zm0 131.179c1.969 0 3.564-1.616 3.564-3.61s-1.595-3.611-3.564-3.611c-1.968 0-3.563 1.617-3.563 3.611s1.595 3.61 3.563 3.61zm155.627-131.179c1.968 0 3.564-1.617 3.564-3.611s-1.596-3.61-3.564-3.61-3.564 1.616-3.564 3.61 1.596 3.611 3.564 3.611zm0 131.179c1.968 0 3.564-1.616 3.564-3.61s-1.596-3.611-3.564-3.611-3.564 1.617-3.564 3.611 1.596 3.61 3.564 3.61zm0-259.952c1.968 0 3.564-1.616 3.564-3.61s-1.596-3.611-3.564-3.611-3.564 1.617-3.564 3.611 1.596 3.61 3.564 3.61z" fill="#3c4556" fill-rule="evenodd"/><path d="m759.187 684.096h157.462m154.611 0h674.74m-831.488-259.977h831.488m-830.776 129.632h830.776m-1026.001 0h36.338" stroke="#3c4556" stroke-linecap="square" stroke-width=".626"/><g clip-rule="evenodd" fill-rule="evenodd"><path d="m915.937 316.745v255.703zm0 367.529v24.217zm155.323-367.529v391.746zm311.36 106.84v284.906zm-155.68-106.84v391.746z" stroke="#3c4556" stroke-linecap="square" stroke-width=".626"/><path d="m760.097 556.852c1.968 0 3.564-1.616 3.564-3.61s-1.596-3.61-3.564-3.61-3.564 1.616-3.564 3.61 1.596 3.61 3.564 3.61zm0 131.18c1.968 0 3.564-1.617 3.564-3.611s-1.596-3.61-3.564-3.61-3.564 1.616-3.564 3.61 1.596 3.611 3.564 3.611zm155.626-131.18c1.969 0 3.564-1.616 3.564-3.61s-1.595-3.61-3.564-3.61c-1.968 0-3.564 1.616-3.564 3.61s1.596 3.61 3.564 3.61zm0 131.18c1.969 0 3.564-1.617 3.564-3.611s-1.595-3.61-3.564-3.61c-1.968 0-3.564 1.616-3.564 3.61s1.596 3.611 3.564 3.611zm155.627-131.18c1.97 0 3.56-1.616 3.56-3.61s-1.59-3.61-3.56-3.61-3.56 1.616-3.56 3.61 1.59 3.61 3.56 3.61zm0 131.18c1.97 0 3.56-1.617 3.56-3.611s-1.59-3.61-3.56-3.61-3.56 1.616-3.56 3.61 1.59 3.611 3.56 3.611zm0-259.952c1.97 0 3.56-1.616 3.56-3.61s-1.59-3.611-3.56-3.611-3.56 1.617-3.56 3.611 1.59 3.61 3.56 3.61zm155.63 0c1.96 0 3.56-1.616 3.56-3.61s-1.6-3.611-3.56-3.611c-1.97 0-3.57 1.617-3.57 3.611s1.6 3.61 3.57 3.61zm0 128.772c1.96 0 3.56-1.616 3.56-3.61s-1.6-3.61-3.56-3.61c-1.97 0-3.57 1.616-3.57 3.61s1.6 3.61 3.57 3.61zm0 131.18c1.96 0 3.56-1.617 3.56-3.611s-1.6-3.61-3.56-3.61c-1.97 0-3.57 1.616-3.57 3.61s1.6 3.611 3.57 3.611zm155.62-131.18c1.97 0 3.57-1.616 3.57-3.61s-1.6-3.61-3.57-3.61-3.56 1.616-3.56 3.61 1.59 3.61 3.56 3.61zm0 131.18c1.97 0 3.57-1.617 3.57-3.611s-1.6-3.61-3.57-3.61-3.56 1.616-3.56 3.61 1.59 3.611 3.56 3.611zm0-259.952c1.97 0 3.57-1.616 3.57-3.61s-1.6-3.611-3.57-3.611-3.56 1.617-3.56 3.611 1.59 3.61 3.56 3.61zm-466.877 0c1.969 0 3.564-1.616 3.564-3.61s-1.595-3.611-3.564-3.611c-1.968 0-3.564 1.617-3.564 3.611s1.596 3.61 3.564 3.61z" fill="#3c4556"/></g></g><g opacity=".5"><path d="m-111.488 815.865h831.488m-830.775 129.632h830.775" stroke="#3c4556" stroke-linecap="square" stroke-width=".626"/><path clip-rule="evenodd" d="m45.263 708.491v391.749zm311.362 106.84v284.909zm155.681 0v284.909zm155.682 0v284.909zm-467.044-106.84v391.749z" fill-rule="evenodd" stroke="#3c4556" stroke-linecap="square" stroke-width=".626"/><path clip-rule="evenodd" d="m45.35 948.598c1.969 0 3.564-1.616 3.564-3.61s-1.595-3.611-3.564-3.611c-1.968 0-3.564 1.617-3.564 3.611s1.596 3.61 3.564 3.61zm0-128.772c1.969 0 3.564-1.617 3.564-3.611s-1.595-3.61-3.564-3.61c-1.968 0-3.564 1.616-3.564 3.61s1.596 3.611 3.564 3.611zm155.627 0c1.968 0 3.564-1.617 3.564-3.611s-1.596-3.61-3.564-3.61c-1.969 0-3.564 1.616-3.564 3.61s1.595 3.611 3.564 3.611zm0 128.772c1.968 0 3.564-1.616 3.564-3.61s-1.596-3.611-3.564-3.611c-1.969 0-3.564 1.617-3.564 3.611s1.595 3.61 3.564 3.61zm155.626 0c1.968 0 3.564-1.616 3.564-3.61s-1.596-3.611-3.564-3.611-3.564 1.617-3.564 3.611 1.596 3.61 3.564 3.61zm0-128.772c1.968 0 3.564-1.617 3.564-3.611s-1.596-3.61-3.564-3.61-3.564 1.616-3.564 3.61 1.596 3.611 3.564 3.611zm155.626 0c1.969 0 3.564-1.617 3.564-3.611s-1.595-3.61-3.564-3.61c-1.968 0-3.563 1.616-3.563 3.61s1.595 3.611 3.563 3.611zm0 128.772c1.969 0 3.564-1.616 3.564-3.61s-1.595-3.611-3.564-3.611c-1.968 0-3.563 1.617-3.563 3.611s1.595 3.61 3.563 3.61zm155.627 0c1.968 0 3.564-1.616 3.564-3.61s-1.596-3.611-3.564-3.611-3.564 1.617-3.564 3.611 1.596 3.61 3.564 3.61zm0-128.772c1.968 0 3.564-1.617 3.564-3.611s-1.596-3.61-3.564-3.61-3.564 1.616-3.564 3.61 1.596 3.611 3.564 3.611z" fill="#3c4556" fill-rule="evenodd"/><path d="m914.512 815.865h831.488m-830.776 129.632h830.776m-1026.001 0h36.338" stroke="#3c4556" stroke-linecap="square" stroke-width=".626"/><g clip-rule="evenodd" fill-rule="evenodd"><path d="m915.937 708.491v255.703zm155.323 0v391.749zm311.36 106.839v284.91zm-155.68-106.839v391.749z" stroke="#3c4556" stroke-linecap="square" stroke-width=".626"/><path d="m760.097 948.598c1.968 0 3.564-1.617 3.564-3.611s-1.596-3.61-3.564-3.61-3.564 1.616-3.564 3.61 1.596 3.611 3.564 3.611zm155.626 0c1.969 0 3.564-1.617 3.564-3.611s-1.595-3.61-3.564-3.61c-1.968 0-3.564 1.616-3.564 3.61s1.596 3.611 3.564 3.611zm155.627 0c1.97 0 3.56-1.617 3.56-3.611s-1.59-3.61-3.56-3.61-3.56 1.616-3.56 3.61 1.59 3.611 3.56 3.611zm0-128.773c1.97 0 3.56-1.616 3.56-3.61s-1.59-3.611-3.56-3.611-3.56 1.617-3.56 3.611 1.59 3.61 3.56 3.61zm155.63 0c1.96 0 3.56-1.616 3.56-3.61s-1.6-3.611-3.56-3.611c-1.97 0-3.57 1.617-3.57 3.611s1.6 3.61 3.57 3.61zm0 128.773c1.96 0 3.56-1.617 3.56-3.611s-1.6-3.61-3.56-3.61c-1.97 0-3.57 1.616-3.57 3.61s1.6 3.611 3.57 3.611zm155.62 0c1.97 0 3.57-1.617 3.57-3.611s-1.6-3.61-3.57-3.61-3.56 1.616-3.56 3.61 1.59 3.611 3.56 3.611zm0-128.773c1.97 0 3.57-1.616 3.57-3.61s-1.6-3.611-3.57-3.611-3.56 1.617-3.56 3.611 1.59 3.61 3.56 3.61zm-466.877 0c1.969 0 3.564-1.616 3.564-3.61s-1.595-3.611-3.564-3.611c-1.968 0-3.564 1.617-3.564 3.611s1.596 3.61 3.564 3.61z" fill="#3c4556"/></g></g></svg>