<svg width="200" height="150" viewBox="0 0 200 150" fill="none" xmlns="http://www.w3.org/2000/svg">
<path d="M20.4537 28.6385H2.76562V144.811H20.4537V28.6385Z" fill="black" fill-opacity="0.08"/>
<path d="M71.7246 18.1523V15.8068C71.7246 14.9238 72.4421 14.2339 73.2976 14.2339H100.313C101.196 14.2339 101.885 14.9514 101.885 15.8068V18.1523H71.7246Z" fill="#FFDE8A"/>
<path d="M62.867 74.914H61.2665C60.494 74.914 59.8867 74.2795 59.8867 73.5343V59.9303C59.8867 59.1575 60.5215 58.5505 61.2665 58.5505H62.8947V74.914H62.867Z" fill="#FFDE8A"/>
<path d="M62.867 91.609H61.2665C60.494 91.609 59.8867 90.9742 59.8867 90.2292V76.625C59.8867 75.8525 60.5215 75.2452 61.2665 75.2452H62.8947V91.609H62.867Z" fill="#FFDE8A"/>
<path d="M141.925 76.5148C141.759 76.5148 141.649 76.4043 141.649 76.2388C141.649 75.6593 141.207 75.3558 140.656 74.9971C140.076 74.6108 139.441 74.1968 139.441 73.3138C139.441 72.4308 140.104 71.9893 140.656 71.6306C141.18 71.2718 141.649 70.9683 141.649 70.3888C141.649 69.8093 141.207 69.5058 140.656 69.1471C140.076 68.7606 139.441 68.3468 139.441 67.4638C139.441 66.5808 140.104 66.1668 140.656 65.7806C141.18 65.4218 141.649 65.1183 141.649 64.5388C141.649 63.9593 141.207 63.6556 140.656 63.2971C140.076 62.9106 139.441 62.4968 139.441 61.6135C139.441 60.7305 140.104 60.3168 140.656 59.9303C141.18 59.5718 141.649 59.2958 141.649 58.6885C141.649 58.0815 141.207 57.8055 140.656 57.4468C140.076 57.0606 139.441 56.6466 139.441 55.7635C139.441 54.8805 140.104 54.4668 140.656 54.0803C141.18 53.7215 141.649 53.4181 141.649 52.8386C141.649 52.2591 141.207 51.9555 140.656 51.5968C140.076 51.2105 139.441 50.7966 139.441 49.9136C139.441 49.0306 140.104 48.6166 140.656 48.2303C141.18 47.8716 141.649 47.568 141.649 46.9885C141.649 46.409 141.207 46.1055 140.656 45.7468C140.076 45.3605 139.441 44.9465 139.441 44.0635C139.441 43.1805 140.104 42.7665 140.656 42.3803C141.18 42.0215 141.649 41.7455 141.649 41.1385C141.649 40.973 141.759 40.8625 141.925 40.8625C142.091 40.8625 142.201 40.973 142.201 41.1385C142.201 42.0215 141.539 42.4356 140.987 42.8218C140.462 43.1806 139.993 43.484 139.993 44.0635C139.993 44.643 140.435 44.9465 140.987 45.3053C141.566 45.6915 142.201 46.1055 142.201 46.9885C142.201 47.8715 141.539 48.2855 140.987 48.6718C140.462 49.0305 139.993 49.3341 139.993 49.9136C139.993 50.4931 140.435 50.7965 140.987 51.1553C141.566 51.5418 142.201 51.9556 142.201 52.8386C142.201 53.7216 141.539 54.1356 140.987 54.5218C140.462 54.8806 139.993 55.184 139.993 55.7635C139.993 56.3431 140.435 56.6465 140.987 57.0053C141.566 57.3918 142.201 57.8055 142.201 58.6885C142.201 59.5718 141.539 59.9855 140.987 60.3718C140.462 60.7305 139.993 61.0065 139.993 61.6135C139.993 62.193 140.435 62.4968 140.987 62.8555C141.566 63.2418 142.201 63.6556 142.201 64.5388C142.201 65.4218 141.539 65.8633 140.987 66.222C140.462 66.5808 139.993 66.8843 139.993 67.4638C139.993 68.0433 140.435 68.3468 140.987 68.7055C141.566 69.0918 142.201 69.5058 142.201 70.3888C142.201 71.2718 141.539 71.7133 140.987 72.072C140.462 72.4308 139.993 72.7343 139.993 73.3138C139.993 73.8933 140.435 74.1968 140.987 74.5555C141.566 74.9418 142.201 75.3558 142.201 76.2388C142.201 76.4043 142.091 76.5148 141.925 76.5148Z" fill="#FFDE8A"/>
<path d="M14.0519 63.6007C13.8863 63.6007 13.7759 63.4902 13.7759 63.3247C13.7759 62.7452 13.3344 62.4417 12.7825 62.083C12.203 61.6967 11.5684 61.2827 11.5684 60.3997C11.5684 59.5167 12.2306 59.0752 12.7825 58.7165C13.3068 58.3577 13.7759 58.0542 13.7759 57.4747C13.7759 57.309 13.8863 57.1987 14.0519 57.1987C14.2174 57.1987 14.3278 57.309 14.3278 57.4747C14.3278 58.3577 13.6655 58.7992 13.1136 59.158C12.5894 59.5167 12.1202 59.8202 12.1202 60.3997C12.1202 60.9792 12.5618 61.2827 13.1136 61.6415C13.6931 62.0277 14.3278 62.4417 14.3278 63.3247C14.3278 63.4902 14.1898 63.6007 14.0519 63.6007Z" fill="#E96436"/>
<path d="M197.224 64.042C197.058 64.042 196.948 63.9315 196.948 63.766C196.948 63.1865 196.506 62.883 195.954 62.5242C195.375 62.138 194.74 61.724 194.74 60.841C194.74 59.958 195.402 59.5165 195.954 59.1577C196.479 58.799 196.948 58.4955 196.948 57.916C196.948 57.3365 196.506 57.033 195.954 56.6742C195.375 56.288 194.74 55.874 194.74 54.991C194.74 54.108 195.402 53.694 195.954 53.3077C196.479 52.949 196.948 52.673 196.948 52.066C196.948 51.459 196.506 51.183 195.954 50.8242C195.375 50.438 194.74 50.024 194.74 49.141C194.74 48.9752 194.851 48.865 195.016 48.865C195.182 48.865 195.292 48.9752 195.292 49.141C195.292 49.7205 195.734 50.024 196.285 50.3827C196.865 50.769 197.5 51.183 197.5 52.066C197.5 52.949 196.837 53.363 196.285 53.7492C195.761 54.108 195.292 54.384 195.292 54.991C195.292 55.5705 195.734 55.874 196.285 56.2327C196.865 56.619 197.5 57.033 197.5 57.916C197.5 58.799 196.837 59.213 196.285 59.5992C195.761 59.958 195.292 60.2615 195.292 60.841C195.292 61.4205 195.734 61.724 196.285 62.0827C196.865 62.469 197.5 62.883 197.5 63.766C197.5 63.9315 197.362 64.042 197.224 64.042Z" fill="#E96436"/>
<path d="M21.778 11.5019C20.895 11.5019 20.4811 10.8396 20.0947 10.2877C19.736 9.76343 19.4325 9.29433 18.853 9.29433C18.2735 9.29433 17.97 9.73583 17.6112 10.2877C17.2249 10.8672 16.811 11.5019 15.928 11.5019C15.0449 11.5019 14.631 10.8396 14.2447 10.2877C13.886 9.76343 13.5824 9.29433 13.0029 9.29433C12.4235 9.29433 12.1199 9.73583 11.7612 10.2877C11.3749 10.8672 10.9609 11.5019 10.0779 11.5019C9.19488 11.5019 8.78098 10.8396 8.39465 10.2877C8.03593 9.76343 7.73238 9.29433 7.1529 9.29433C6.98733 9.29433 6.87695 9.18396 6.87695 9.01838C6.87695 8.85281 6.98733 8.74243 7.1529 8.74243C8.03593 8.74243 8.44983 9.40471 8.83615 9.95661C9.19488 10.4809 9.49843 10.95 10.0779 10.95C10.6574 10.95 10.9609 10.5085 11.3197 9.95661C11.706 9.37711 12.1199 8.74243 13.0029 8.74243C13.886 8.74243 14.2999 9.40471 14.6862 9.95661C15.0449 10.4809 15.3485 10.95 15.928 10.95C16.5074 10.95 16.811 10.5085 17.1697 9.95661C17.556 9.37711 17.97 8.74243 18.853 8.74243C19.736 8.74243 20.1499 9.40471 20.5362 9.95661C20.895 10.4809 21.1985 10.95 21.778 10.95C21.9436 10.95 22.0539 11.0604 22.0539 11.226C22.0539 11.3915 21.9436 11.5019 21.778 11.5019Z" fill="#E96436"/>
<path d="M45.6471 23.6435C44.7641 23.6435 44.3501 22.9812 43.9638 22.4293C43.6051 21.905 43.3016 21.4359 42.7221 21.4359C42.1426 21.4359 41.8391 21.8774 41.4803 22.4293C41.0938 23.0088 40.6801 23.6435 39.7971 23.6435C38.9141 23.6435 38.5001 22.9812 38.1138 22.4293C37.7551 21.905 37.4516 21.4359 36.8721 21.4359C36.2926 21.4359 35.9888 21.8774 35.6303 22.4293C35.2438 23.0088 34.8301 23.6435 33.9468 23.6435C33.0638 23.6435 32.6501 22.9812 32.2636 22.4293C31.9051 21.905 31.6013 21.4359 31.0218 21.4359C30.8563 21.4359 30.7461 21.3256 30.7461 21.16C30.7461 20.9944 30.8563 20.884 31.0218 20.884C31.9051 20.884 32.3188 21.5463 32.7051 22.0982C33.0638 22.6225 33.3676 23.0916 33.9468 23.0916C34.5263 23.0916 34.8301 22.6501 35.1888 22.0982C35.5751 21.5187 35.9888 20.884 36.8721 20.884C37.7551 20.884 38.1688 21.5463 38.5553 22.0982C38.9141 22.6225 39.2176 23.0916 39.7971 23.0916C40.3766 23.0916 40.6801 22.6501 41.0388 22.0982C41.4251 21.5187 41.8391 20.884 42.7221 20.884C43.6051 20.884 44.0188 21.5463 44.4053 22.0982C44.7641 22.6225 45.0676 23.0916 45.6471 23.0916C45.8126 23.0916 45.9231 23.202 45.9231 23.3676C45.9231 23.5331 45.7851 23.6435 45.6471 23.6435Z" fill="#E96436"/>
<path d="M71.9719 144.811C66.5634 144.811 62.1484 140.396 62.1484 134.988V25.5475C62.1484 20.139 66.5634 15.7239 71.9719 15.7239H126.554C131.962 15.7239 136.378 20.139 136.378 25.5475V134.96C136.378 140.368 131.962 144.783 126.554 144.783H71.9719V144.811Z" fill="black"/>
<path d="M71.9725 142.052C68.0817 142.052 64.9082 138.878 64.9082 134.988V25.5475C64.9082 21.6568 68.0817 18.4834 71.9725 18.4834H126.554C130.445 18.4834 133.619 21.6568 133.619 25.5475V134.96C133.619 138.851 130.445 142.024 126.554 142.024H71.9725V142.052Z" fill="#E96436"/>
<path d="M126.555 102.95H71.9727C69.5997 102.95 67.668 101.019 67.668 98.6452V25.5475C67.668 23.1743 69.5997 21.2427 71.9727 21.2427H126.555C128.928 21.2427 130.859 23.1743 130.859 25.5475V98.6178C130.859 101.019 128.928 102.95 126.555 102.95Z" fill="#EAEAEA"/>
<path d="M93.6896 100.356C94.5276 100.356 95.2071 99.6768 95.2071 98.8386C95.2071 98.0003 94.5276 97.3208 93.6896 97.3208C92.8514 97.3208 92.1719 98.0003 92.1719 98.8386C92.1719 99.6768 92.8514 100.356 93.6896 100.356Z" fill="#E96436"/>
<path d="M99.2638 100.356C100.102 100.356 100.782 99.6768 100.782 98.8386C100.782 98.0003 100.102 97.3208 99.2638 97.3208C98.4256 97.3208 97.7461 98.0003 97.7461 98.8386C97.7461 99.6768 98.4256 100.356 99.2638 100.356Z" fill="#FFDE8A"/>
<path d="M104.865 100.356C105.704 100.356 106.383 99.6768 106.383 98.8386C106.383 98.0003 105.704 97.3208 104.865 97.3208C104.027 97.3208 103.348 98.0003 103.348 98.8386C103.348 99.6768 104.027 100.356 104.865 100.356Z" fill="#FFDE8A"/>
<path d="M118.166 81.2885H80.3618C79.258 81.2885 78.375 80.4055 78.375 79.3018V42.9598C78.375 41.856 79.258 40.973 80.3618 40.973H118.166C119.27 40.973 120.153 41.856 120.153 42.9598V79.3018C120.181 80.4055 119.27 81.2885 118.166 81.2885Z" fill="#FFDE8A"/>
<path d="M112.951 116.278H85.6044C83.7556 116.278 82.2656 114.788 82.2656 112.939C82.2656 111.091 83.7556 109.6 85.6044 109.6H112.951C114.799 109.6 116.29 111.091 116.29 112.939C116.262 114.788 114.772 116.278 112.951 116.278Z" fill="#FFDE8A"/>
<path d="M109.17 120.583H89.3574C89.1366 120.583 88.9434 120.39 88.9434 120.169C88.9434 119.948 89.1366 119.755 89.3574 119.755H109.17C109.391 119.755 109.584 119.948 109.584 120.169C109.584 120.39 109.391 120.583 109.17 120.583Z" fill="#FFDE8A"/>
<path d="M105.832 123.48H92.6696C92.4489 123.48 92.2559 123.287 92.2559 123.066C92.2559 122.846 92.4489 122.652 92.6696 122.652H105.832C106.053 122.652 106.246 122.846 106.246 123.066C106.246 123.287 106.081 123.48 105.832 123.48Z" fill="#FFDE8A"/>
<path d="M75.1459 136.368C73.5179 136.368 72.1934 135.043 72.1934 133.415C72.1934 131.787 73.5179 130.462 75.1459 130.462C76.7739 130.462 78.0986 131.787 78.0986 133.415C78.0709 135.043 76.7464 136.368 75.1459 136.368ZM75.1459 131.318C73.9869 131.318 73.0211 132.256 73.0211 133.442C73.0211 134.601 73.9594 135.567 75.1459 135.567C76.3049 135.567 77.2706 134.629 77.2706 133.442C77.2431 132.256 76.3049 131.318 75.1459 131.318Z" fill="#FFDE8A"/>
<path d="M91.2337 136.368C89.6057 136.368 88.2812 135.043 88.2812 133.415C88.2812 131.787 89.6057 130.462 91.2337 130.462C92.862 130.462 94.1865 131.787 94.1865 133.415C94.1588 135.043 92.8342 136.368 91.2337 136.368ZM91.2337 131.318C90.0747 131.318 89.109 132.256 89.109 133.442C89.109 134.601 90.0472 135.567 91.2337 135.567C92.3927 135.567 93.3585 134.629 93.3585 133.442C93.331 132.256 92.3927 131.318 91.2337 131.318Z" fill="#FFDE8A"/>
<path d="M107.322 136.368C105.694 136.368 104.369 135.043 104.369 133.415C104.369 131.787 105.694 130.462 107.322 130.462C108.95 130.462 110.274 131.787 110.274 133.415C110.247 135.043 108.922 136.368 107.322 136.368ZM107.322 131.318C106.163 131.318 105.197 132.256 105.197 133.442C105.197 134.601 106.135 135.567 107.322 135.567C108.481 135.567 109.447 134.629 109.447 133.442C109.419 132.256 108.481 131.318 107.322 131.318Z" fill="#FFDE8A"/>
<path d="M123.41 136.368C121.782 136.368 120.457 135.043 120.457 133.415C120.457 131.787 121.782 130.462 123.41 130.462C125.038 130.462 126.362 131.787 126.362 133.415C126.335 135.043 125.038 136.368 123.41 136.368ZM123.41 131.318C122.251 131.318 121.285 132.256 121.285 133.442C121.285 134.601 122.223 135.567 123.41 135.567C124.596 135.567 125.535 134.629 125.535 133.442C125.507 132.256 124.569 131.318 123.41 131.318Z" fill="#FFDE8A"/>
<path d="M120.069 86.6971H78.4569C77.8499 86.6971 77.3809 86.2281 77.3809 85.6208C77.3809 85.0138 77.8499 84.5448 78.4569 84.5448H120.069C120.677 84.5448 121.146 85.0138 121.146 85.6208C121.146 86.2281 120.677 86.6971 120.069 86.6971Z" fill="#E96436"/>
<path d="M120.069 90.3948H78.4569C77.8499 90.3948 77.3809 89.9258 77.3809 89.3186C77.3809 88.7116 77.8499 88.2426 78.4569 88.2426H120.069C120.677 88.2426 121.146 88.7116 121.146 89.3186C121.146 89.8981 120.677 90.3948 120.069 90.3948Z" fill="#E96436"/>
<path d="M82.0175 24.8853H74.5117V32.391H82.0175V24.8853Z" fill="black"/>
<path d="M120.291 32.391H89.6883C87.6188 32.391 85.9355 30.7078 85.9355 28.638C85.9355 26.5685 87.6188 24.8853 89.6883 24.8853H120.291C122.36 24.8853 124.044 26.5685 124.044 28.638C124.044 30.7078 122.36 32.391 120.291 32.391Z" fill="black"/>
<path d="M123.051 75.3557H118.36C118.194 75.3557 118.084 75.2455 118.084 75.08C118.084 74.9142 118.194 74.804 118.36 74.804H123.051C123.217 74.804 123.327 74.9142 123.327 75.08C123.327 75.2455 123.217 75.3557 123.051 75.3557Z" fill="#E96436"/>
<path d="M124.071 77.784H87.5082C87.3427 77.784 87.2324 77.6738 87.2324 77.5081C87.2324 77.3426 87.3427 77.2323 87.5082 77.2323H124.071C124.237 77.2323 124.347 77.3426 124.347 77.5081C124.347 77.6738 124.237 77.784 124.071 77.784Z" fill="#E96436"/>
<path d="M99.2356 71.9892L86.6523 71.5754V53.8597L87.9493 52.5074L100.532 70.6647L99.2356 71.9892Z" fill="#E96436"/>
<path d="M100.532 70.6647L87.9492 70.2507V52.5074L100.532 70.6647Z" fill="black"/>
<path d="M103.595 70.9407C103.512 70.9407 103.43 70.8855 103.374 70.8302L98.0212 63.1037C97.9384 62.9657 97.9659 62.8002 98.1039 62.7175C98.2419 62.6347 98.4074 62.6622 98.4902 62.8002L103.844 70.5267C103.926 70.6647 103.899 70.8302 103.761 70.913C103.706 70.913 103.65 70.9407 103.595 70.9407Z" fill="#E96436"/>
<path d="M97.1937 61.724C97.1109 61.724 97.0282 61.669 96.9729 61.6138L94.3239 57.778C94.2412 57.6403 94.2687 57.4745 94.4067 57.3918C94.5447 57.309 94.7102 57.3365 94.7929 57.4745L97.4144 61.2825C97.4972 61.4205 97.4697 61.5863 97.3317 61.669C97.3042 61.6965 97.2489 61.724 97.1937 61.724Z" fill="#E96436"/>
<path d="M106.603 70.9405C106.52 70.9405 106.438 70.8855 106.382 70.8303L89.826 46.961C89.743 46.823 89.7707 46.6575 89.9087 46.5748C90.0467 46.4918 90.2122 46.5195 90.295 46.6575L106.852 70.5268C106.934 70.6648 106.907 70.8303 106.769 70.913C106.714 70.913 106.658 70.9405 106.603 70.9405Z" fill="#E96436"/>
<path d="M109.612 70.9408C109.529 70.9408 109.447 70.8856 109.391 70.8303L96.8083 52.6733C96.7255 52.5353 96.753 52.3696 96.891 52.2868C97.029 52.2041 97.1945 52.2316 97.2773 52.3696L109.861 70.5268C109.943 70.6648 109.916 70.8303 109.778 70.9131C109.723 70.9131 109.667 70.9408 109.612 70.9408Z" fill="#E96436"/>
<path d="M103.32 52.0938C105.469 52.0938 107.211 50.3518 107.211 48.2028C107.211 46.054 105.469 44.312 103.32 44.312C101.172 44.312 99.4297 46.054 99.4297 48.2028C99.4297 50.3518 101.172 52.0938 103.32 52.0938Z" fill="#E96436"/>
<path d="M95.87 51.5417C96.4033 51.5417 96.8358 51.1092 96.8358 50.576C96.8358 50.0425 96.4033 49.61 95.87 49.61C95.3365 49.61 94.9043 50.0425 94.9043 50.576C94.9043 51.1092 95.3365 51.5417 95.87 51.5417Z" fill="#E96436"/>
<path d="M99.3742 70.0023C99.3467 70.0023 99.3465 70.0298 99.319 70.0298C99.2915 70.0298 99.2637 70.0575 99.2637 70.0575C99.2362 70.0575 99.2087 70.0575 99.181 70.0575C99.1535 70.0575 99.1257 70.0298 99.1257 70.0298C99.0982 70.0298 99.0982 70.0023 99.0707 69.9748C99.0707 69.947 99.0707 69.947 99.043 69.9195C99.043 69.892 99.043 69.8643 99.043 69.8368C99.043 69.809 99.043 69.809 99.0707 69.7815C99.0982 69.754 99.0982 69.7263 99.1257 69.7263C99.1535 69.7263 99.1535 69.6988 99.181 69.6988C99.2087 69.6988 99.2362 69.6713 99.2362 69.6713C99.2637 69.6713 99.2915 69.6713 99.319 69.6713C99.3465 69.6713 99.3742 69.6988 99.3742 69.6988C99.4017 69.6988 99.4017 69.7263 99.4295 69.754C99.4295 69.7815 99.4295 69.7815 99.457 69.809C99.457 69.8368 99.457 69.8643 99.457 69.892C99.457 69.9195 99.457 69.9195 99.4295 69.947C99.4295 69.947 99.4017 69.9748 99.3742 70.0023Z" fill="white"/>
<path d="M94.1597 68.8432C93.939 68.8432 93.939 68.4845 94.1597 68.4845C94.3805 68.4845 94.3805 68.8432 94.1597 68.8432Z" fill="white"/>
<path d="M98.187 69.8092C97.9663 69.8092 97.9663 69.4504 98.187 69.4504C98.4078 69.4504 98.4078 69.8092 98.187 69.8092Z" fill="white"/>
<path d="M92.8335 68.6777C92.6128 68.6777 92.6128 68.319 92.8335 68.319C93.0818 68.319 93.0818 68.6777 92.8335 68.6777Z" fill="white"/>
<path d="M92.5308 69.754C92.31 69.754 92.31 69.3953 92.5308 69.3953C92.7515 69.3953 92.7515 69.754 92.5308 69.754Z" fill="white"/>
<path d="M95.0132 69.6712C94.7925 69.6712 94.7925 69.3125 95.0132 69.3125C95.234 69.3125 95.234 69.6712 95.0132 69.6712Z" fill="white"/>
<path d="M89.0816 62.4141C88.8608 62.4141 88.8608 62.0553 89.0816 62.0553C89.3023 62.0553 89.3023 62.4141 89.0816 62.4141Z" fill="white"/>
<path d="M88.5855 60.3995C88.3647 60.3995 88.3647 60.0408 88.5855 60.0408C88.8062 60.0408 88.8062 60.3995 88.5855 60.3995Z" fill="white"/>
<path d="M89.8257 64.4835C89.605 64.4835 89.605 64.1248 89.8257 64.1248C90.0465 64.1248 90.0465 64.4835 89.8257 64.4835Z" fill="white"/>
<path d="M90.5992 68.402C90.3784 68.402 90.3784 68.0432 90.5992 68.0432C90.8199 68.0432 90.8199 68.402 90.5992 68.402Z" fill="white"/>
<path d="M90.3511 66.9947C90.1304 66.9947 90.1304 66.6359 90.3511 66.6359C90.5719 66.6082 90.5719 66.9947 90.3511 66.9947Z" fill="white"/>
<path d="M95.3999 69.1195C95.1792 69.1195 95.1792 68.7607 95.3999 68.7607C95.6482 68.733 95.6482 69.1195 95.3999 69.1195Z" fill="white"/>
<path d="M96.6695 69.8645C96.4487 69.8645 96.4487 69.5058 96.6695 69.5058C96.9177 69.4783 96.9177 69.8645 96.6695 69.8645Z" fill="white"/>
<path d="M93.7456 69.561C93.5249 69.561 93.5249 69.2023 93.7456 69.2023C93.9939 69.2023 93.9939 69.561 93.7456 69.561Z" fill="white"/>
<path d="M90.4605 65.808C90.2397 65.808 90.2397 65.4492 90.4605 65.4492C90.709 65.4492 90.709 65.808 90.4605 65.808Z" fill="white"/>
<path d="M88.8335 57.9713C88.6128 57.9713 88.6128 57.6125 88.8335 57.6125C89.0818 57.6125 89.0818 57.9713 88.8335 57.9713Z" fill="white"/>
<path d="M90.9585 69.8092C90.7378 69.8092 90.7378 69.4504 90.9585 69.4504C91.1793 69.4504 91.1793 69.8092 90.9585 69.8092Z" fill="white"/>
<path d="M88.8882 66.691C88.6675 66.691 88.6675 66.3323 88.8882 66.3323C89.1365 66.3323 89.1365 66.691 88.8882 66.691Z" fill="white"/>
<path d="M91.8687 68.954C91.6479 68.954 91.6479 68.5952 91.8687 68.5952C92.0894 68.5952 92.0894 68.954 91.8687 68.954Z" fill="white"/>
<path d="M90.3511 69.147C90.1304 69.147 90.1304 68.7882 90.3511 68.7882C90.5719 68.7882 90.5719 69.147 90.3511 69.147Z" fill="white"/>
<path d="M88.8335 63.6833C88.6128 63.6833 88.6128 63.3245 88.8335 63.3245C89.0818 63.2968 89.0818 63.6833 88.8335 63.6833Z" fill="white"/>
<path d="M88.7495 64.7593C88.5288 64.7593 88.5288 64.4008 88.7495 64.4008C88.9978 64.4008 88.9978 64.7593 88.7495 64.7593Z" fill="white"/>
<path d="M89.3023 65.6977C89.0815 65.6977 89.0815 65.339 89.3023 65.339C89.523 65.339 89.523 65.6977 89.3023 65.6977Z" fill="white"/>
<path d="M89.4683 67.7674C89.2475 67.7674 89.2475 67.4087 89.4683 67.4087C89.689 67.4087 89.689 67.7674 89.4683 67.7674Z" fill="white"/>
<path d="M88.7495 68.6777C88.5288 68.6777 88.5288 68.319 88.7495 68.319C88.9978 68.319 88.9978 68.6777 88.7495 68.6777Z" fill="white"/>
<path d="M89.1089 69.5885C88.8882 69.5885 88.8882 69.2297 89.1089 69.2297C89.3572 69.2297 89.3572 69.5885 89.1089 69.5885Z" fill="white"/>
<path d="M91.5093 67.4085C91.2886 67.4085 91.2886 67.0497 91.5093 67.0497C91.7301 67.0222 91.7301 67.4085 91.5093 67.4085Z" fill="white"/>
<path d="M116.068 99.3352C116.593 99.3352 116.593 98.5072 116.068 98.5072C115.516 98.5072 115.516 99.3352 116.068 99.3352Z" fill="#E96436"/>
<path d="M106.715 102.426C107.239 102.426 107.239 101.598 106.715 101.598C106.163 101.598 106.163 102.426 106.715 102.426Z" fill="#E96436"/>
<path d="M119.049 98.9213C119.573 98.9213 119.573 98.0935 119.049 98.0935C118.497 98.0935 118.497 98.9213 119.049 98.9213Z" fill="#E96436"/>
<path d="M119.766 101.405C120.29 101.405 120.29 100.577 119.766 100.577C119.242 100.577 119.242 101.405 119.766 101.405Z" fill="#E96436"/>
<path d="M113.943 102.095C114.468 102.095 114.468 101.267 113.943 101.267C113.391 101.267 113.391 102.095 113.943 102.095Z" fill="#E96436"/>
<path d="M127.659 84.6276C128.183 84.6276 128.183 83.7996 127.659 83.7996C127.135 83.7996 127.135 84.6276 127.659 84.6276Z" fill="#E96436"/>
<path d="M130.389 84.2135C130.914 84.2135 130.914 83.3857 130.389 83.3857C129.865 83.3857 129.865 84.2135 130.389 84.2135Z" fill="#E96436"/>
<path d="M128.79 79.9917C129.314 79.9917 129.314 79.1637 128.79 79.1637C128.265 79.1637 128.265 79.9917 128.79 79.9917Z" fill="#E96436"/>
<path d="M125.975 89.3463C126.499 89.3463 126.499 88.5183 125.975 88.5183C125.423 88.5183 125.423 89.3463 125.975 89.3463Z" fill="#E96436"/>
<path d="M124.346 98.5074C124.871 98.5074 124.871 97.6797 124.346 97.6797C123.822 97.6797 123.822 98.5074 124.346 98.5074Z" fill="#E96436"/>
<path d="M126.775 94.6443C127.299 94.6443 127.299 93.8165 126.775 93.8165C126.223 93.8165 126.223 94.6443 126.775 94.6443Z" fill="#E96436"/>
<path d="M113.171 99.915C113.695 99.915 113.695 99.0873 113.171 99.0873C112.646 99.0873 112.646 99.915 113.171 99.915Z" fill="#E96436"/>
<path d="M109.721 100.136C110.246 100.136 110.246 99.3077 109.721 99.3077C109.197 99.3077 109.197 100.136 109.721 100.136Z" fill="#E96436"/>
<path d="M110.136 102.509C110.66 102.509 110.66 101.681 110.136 101.681C109.612 101.681 109.584 102.509 110.136 102.509Z" fill="#E96436"/>
<path d="M116.814 101.874C117.338 101.874 117.338 101.046 116.814 101.046C116.262 101.046 116.262 101.874 116.814 101.874Z" fill="#E96436"/>
<path d="M124.484 92.354C125.008 92.354 125.008 91.526 124.484 91.526C123.932 91.526 123.932 92.354 124.484 92.354Z" fill="#E96436"/>
<path d="M130.389 90.3673C130.914 90.3673 130.914 89.5393 130.389 89.5393C129.865 89.5393 129.865 90.3673 130.389 90.3673Z" fill="#E96436"/>
<path d="M122.968 96.8242C123.492 96.8242 123.492 95.9962 122.968 95.9962C122.443 95.9962 122.443 96.8242 122.968 96.8242Z" fill="#E96436"/>
<path d="M123.382 101.515C123.906 101.515 123.906 100.688 123.382 100.688C122.858 100.688 122.83 101.515 123.382 101.515Z" fill="#E96436"/>
<path d="M121.588 103.309C122.112 103.309 122.112 102.481 121.588 102.481C121.036 102.481 121.036 103.309 121.588 103.309Z" fill="#E96436"/>
<path d="M125.174 103.42C125.699 103.42 125.699 102.592 125.174 102.592C124.65 102.592 124.65 103.42 125.174 103.42Z" fill="#E96436"/>
<path d="M129.59 98.5074C130.115 98.5074 130.115 97.6797 129.59 97.6797C129.066 97.6797 129.066 98.5074 129.59 98.5074Z" fill="#E96436"/>
<path d="M130.004 100.55C130.528 100.55 130.528 99.7218 130.004 99.7218C129.452 99.7218 129.452 100.55 130.004 100.55Z" fill="#E96436"/>
<path d="M129.59 93.9823C130.115 93.9823 130.115 93.1543 129.59 93.1543C129.066 93.1543 129.066 93.9823 129.59 93.9823Z" fill="#E96436"/>
<path d="M121.312 99.5286C121.837 99.5286 121.837 98.7008 121.312 98.7008C120.76 98.7008 120.76 99.5286 121.312 99.5286Z" fill="#E96436"/>
<path d="M126.775 100.55C127.299 100.55 127.299 99.7218 126.775 99.7218C126.223 99.7218 126.223 100.55 126.775 100.55Z" fill="#E96436"/>
<path d="M128.182 87.4697C128.706 87.4697 128.706 86.6417 128.182 86.6417C127.658 86.6417 127.658 87.4697 128.182 87.4697Z" fill="#E96436"/>
<path d="M130.004 86.697C130.528 86.697 130.528 85.8693 130.004 85.8693C129.452 85.8693 129.452 86.697 130.004 86.697Z" fill="#E96436"/>
<path d="M128.404 89.953C128.928 89.953 128.928 89.1252 128.404 89.1252C127.852 89.1252 127.852 89.953 128.404 89.953Z" fill="#E96436"/>
<path d="M127.163 92.1333C127.687 92.1333 127.687 91.3055 127.163 91.3055C126.638 91.3055 126.638 92.1333 127.163 92.1333Z" fill="#E96436"/>
<path d="M128.79 95.9965C129.314 95.9965 129.314 95.1687 128.79 95.1687C128.265 95.1687 128.265 95.9965 128.79 95.9965Z" fill="#E96436"/>
<path d="M127.797 98.2867C128.322 98.2867 128.322 97.459 127.797 97.459C127.273 97.459 127.273 98.2867 127.797 98.2867Z" fill="#E96436"/>
<path d="M127.99 103.143C128.873 103.143 128.873 101.791 127.99 101.791C127.107 101.764 127.107 103.143 127.99 103.143Z" fill="#E96436"/>
<path d="M100.257 102.481C100.781 102.481 100.781 101.653 100.257 101.653C99.7322 101.653 99.7322 102.481 100.257 102.481Z" fill="#E96436"/>
<path d="M103.596 102.205C104.121 102.205 104.121 101.377 103.596 101.377C103.072 101.377 103.072 102.205 103.596 102.205Z" fill="#E96436"/>
<path d="M36.7893 41.2213H16.2314C15.238 41.2213 14.4102 40.3936 14.4102 39.4001V33.9088C14.4102 33.7433 14.5205 33.6328 14.6861 33.6328C14.8517 33.6328 14.962 33.7433 14.962 33.9088V39.4001C14.962 40.0901 15.5415 40.6696 16.2314 40.6696H36.7893C37.4793 40.6696 38.0585 40.0901 38.0585 39.4001V33.9088C38.0585 33.7433 38.169 33.6328 38.3345 33.6328C38.5003 33.6328 38.6105 33.7433 38.6105 33.9088V39.4001C38.6105 40.4211 37.8103 41.2213 36.7893 41.2213Z" fill="#E96436"/>
<path d="M36.3483 38.6275C36.1828 38.6275 36.0723 38.517 36.0723 38.3515V34.8745C36.0723 34.709 36.1828 34.5988 36.3483 34.5988C36.5138 34.5988 36.6243 34.709 36.6243 34.8745V38.3515C36.6243 38.517 36.5138 38.6275 36.3483 38.6275Z" fill="#E96436"/>
<path d="M14.6861 24.4714C14.5205 24.4714 14.4102 24.361 14.4102 24.1955V20.7461C14.4102 20.5806 14.5205 20.4702 14.6861 20.4702C14.8517 20.4702 14.962 20.5806 14.962 20.7461V24.2231C14.962 24.361 14.8517 24.4714 14.6861 24.4714Z" fill="#E96436"/>
<path d="M21.0603 31.9772H8.31158C6.46276 31.9772 4.97266 30.4869 4.97266 28.6382C4.97266 26.7894 6.46276 25.2992 8.31158 25.2992H21.0603C22.9091 25.2992 24.3992 26.7894 24.3992 28.6382C24.3716 30.4869 22.8815 31.9772 21.0603 31.9772Z" fill="#FFDE8A"/>
<path d="M42.9424 31.9772H33.6984C31.8494 31.9772 30.3594 30.4869 30.3594 28.6382C30.3594 26.7894 31.8494 25.2992 33.6984 25.2992H42.9424C44.7914 25.2992 46.2814 26.7894 46.2814 28.6382C46.2814 30.4869 44.7914 31.9772 42.9424 31.9772Z" fill="#E96436"/>
<path d="M21.06 19.6146H8.31135C6.4901 19.6146 5 18.1245 5 16.3033C5 14.4545 6.4901 12.9644 8.33892 12.9644H21.0876C22.9364 12.9644 24.4265 14.4545 24.4265 16.3033C24.3713 18.1245 22.8812 19.6146 21.06 19.6146Z" fill="black"/>
<path d="M57.1554 47.1265H15.543C14.9359 47.1265 14.4668 46.6575 14.4668 46.0503C14.4668 45.4433 14.9359 44.974 15.543 44.974H57.1554C57.7627 44.974 58.2317 45.4433 58.2317 46.0503C58.2317 46.6298 57.7627 47.1265 57.1554 47.1265Z" fill="#FFDE8A"/>
<path d="M57.1554 50.7968H15.543C14.9359 50.7968 14.4668 50.3275 14.4668 49.7205C14.4668 49.1135 14.9359 48.6443 15.543 48.6443H57.1554C57.7627 48.6443 58.2317 49.1135 58.2317 49.7205C58.2317 50.3275 57.7627 50.7968 57.1554 50.7968Z" fill="#FFDE8A"/>
<path d="M25.4758 62.6345H18.4669C17.6391 62.6345 16.9492 61.9447 16.9492 61.1167C16.9492 60.289 17.6391 59.599 18.4669 59.599H25.4483C26.2761 59.599 26.9661 60.289 26.9661 61.1167C26.9661 61.9447 26.3038 62.6345 25.4758 62.6345Z" fill="#E96436"/>
<path d="M32.8709 62.6345H29.9181C29.0904 62.6345 28.4004 61.9447 28.4004 61.1167C28.4004 60.289 29.0904 59.599 29.9181 59.599H32.8709C33.6986 59.599 34.3886 60.289 34.3886 61.1167C34.3886 61.9447 33.6986 62.6345 32.8709 62.6345Z" fill="#E96436"/>
<path d="M50.0907 62.6345H37.5627C36.7349 62.6345 36.0449 61.9447 36.0449 61.1167C36.0449 60.289 36.7349 59.599 37.5627 59.599H50.0907C50.9184 59.599 51.6084 60.289 51.6084 61.1167C51.6084 61.9447 50.9184 62.6345 50.0907 62.6345Z" fill="#E96436"/>
<path d="M32.3471 68.3189H18.4669C17.6391 68.3189 16.9492 67.6292 16.9492 66.8014C16.9492 65.9734 17.6391 65.2837 18.4669 65.2837H32.3193C33.1473 65.2837 33.8371 65.9734 33.8371 66.8014C33.8371 67.6292 33.1748 68.3189 32.3471 68.3189Z" fill="#E96436"/>
<path d="M50.0907 68.3189H37.5627C36.7349 68.3189 36.0449 67.6292 36.0449 66.8014C36.0449 65.9734 36.7349 65.2837 37.5627 65.2837H50.0907C50.9184 65.2837 51.6084 65.9734 51.6084 66.8014C51.6084 67.6292 50.9184 68.3189 50.0907 68.3189Z" fill="#E96436"/>
<path d="M25.4758 73.976H18.4669C17.6391 73.976 16.9492 73.2863 16.9492 72.4583C16.9492 71.6305 17.6391 70.9408 18.4669 70.9408H25.4483C26.2761 70.9408 26.9661 71.6305 26.9661 72.4583C26.9661 73.2863 26.3038 73.976 25.4758 73.976Z" fill="#E96436"/>
<path d="M50.0899 73.976H29.9181C29.0904 73.976 28.4004 73.2863 28.4004 72.4583C28.4004 71.6305 29.0904 70.9408 29.9181 70.9408H50.0899C50.9176 70.9408 51.6074 71.6305 51.6074 72.4583C51.6074 73.2863 50.9176 73.976 50.0899 73.976Z" fill="#E96436"/>
<path d="M39.9906 79.633H18.4669C17.6391 79.633 16.9492 78.9433 16.9492 78.1153C16.9492 77.2875 17.6391 76.5978 18.4669 76.5978H39.9906C40.8186 76.5978 41.5083 77.2875 41.5083 78.1153C41.5083 78.9433 40.8461 79.633 39.9906 79.633Z" fill="#E96436"/>
<path d="M50.0903 91.3055H18.4669C17.6391 91.3055 16.9492 90.6155 16.9492 89.7878C16.9492 88.96 17.6391 88.27 18.4669 88.27H50.0903C50.9181 88.27 51.6078 88.96 51.6078 89.7878C51.6078 90.6155 50.9181 91.3055 50.0903 91.3055Z" fill="#E96436"/>
<path d="M32.3471 96.9623H18.4669C17.6391 96.9623 16.9492 96.2723 16.9492 95.4445C16.9492 94.6165 17.6391 93.9268 18.4669 93.9268H32.3193C33.1473 93.9268 33.8371 94.6165 33.8371 95.4445C33.8371 96.2723 33.1748 96.9623 32.3471 96.9623Z" fill="#E96436"/>
<path d="M50.0907 96.9623H37.5627C36.7349 96.9623 36.0449 96.2723 36.0449 95.4445C36.0449 94.6165 36.7349 93.9268 37.5627 93.9268H50.0907C50.9184 93.9268 51.6084 94.6165 51.6084 95.4445C51.6084 96.2723 50.9184 96.9623 50.0907 96.9623Z" fill="#E96436"/>
<path d="M25.4758 102.646H18.4669C17.6391 102.646 16.9492 101.956 16.9492 101.129C16.9492 100.301 17.6391 99.611 18.4669 99.611H25.4483C26.2761 99.611 26.9661 100.301 26.9661 101.129C26.9661 101.956 26.3038 102.646 25.4758 102.646Z" fill="#E96436"/>
<path d="M50.0899 102.646H29.9181C29.0904 102.646 28.4004 101.956 28.4004 101.129C28.4004 100.301 29.0904 99.611 29.9181 99.611H50.0899C50.9176 99.611 51.6074 100.301 51.6074 101.129C51.6074 101.956 50.9176 102.646 50.0899 102.646Z" fill="#E96436"/>
<path d="M39.9906 108.303H18.4669C17.6391 108.303 16.9492 107.613 16.9492 106.786C16.9492 105.958 17.6391 105.268 18.4669 105.268H39.9906C40.8186 105.268 41.5083 105.958 41.5083 106.786C41.5083 107.613 40.8461 108.303 39.9906 108.303Z" fill="#E96436"/>
<path d="M184.337 30.156H172.858C172.03 30.156 171.34 29.4662 171.34 28.6382C171.34 27.8105 172.03 27.1205 172.858 27.1205H184.337C185.165 27.1205 185.855 27.8105 185.855 28.6382C185.855 29.4662 185.192 30.156 184.337 30.156Z" fill="#E96436"/>
<path d="M178.432 36.3923H158.178C157.35 36.3923 156.66 35.7026 156.66 34.8748C156.66 34.0468 157.35 33.3571 158.178 33.3571H178.432C179.26 33.3571 179.95 34.0468 179.95 34.8748C179.95 35.7026 179.26 36.3923 178.432 36.3923Z" fill="#E96436"/>
<path d="M185.083 42.4632H164.828C164.001 42.4632 163.311 41.7732 163.311 40.9455C163.311 40.1175 164.001 39.4277 164.828 39.4277H185.083C185.911 39.4277 186.6 40.1175 186.6 40.9455C186.6 41.7732 185.938 42.4632 185.083 42.4632Z" fill="#E96436"/>
<path d="M185.966 36.3923H184.338C183.51 36.3923 182.82 35.7026 182.82 34.8748C182.82 34.0468 183.51 33.3571 184.338 33.3571H185.966C186.794 33.3571 187.484 34.0468 187.484 34.8748C187.484 35.7026 186.794 36.3923 185.966 36.3923Z" fill="#E96436"/>
<path d="M34.3071 30.8458C35.5264 30.8458 36.5146 29.8575 36.5146 28.6383C36.5146 27.419 35.5264 26.4308 34.3071 26.4308C33.0879 26.4308 32.0996 27.419 32.0996 28.6383C32.0996 29.8575 33.0879 30.8458 34.3071 30.8458Z" fill="#FFDE8A"/>
<path d="M190.547 111.173H156.799C154.426 111.173 152.494 109.242 152.494 106.869V74.5829C152.494 72.2099 154.426 70.2782 156.799 70.2782H190.547C192.92 70.2782 194.852 72.2099 194.852 74.5829V106.869C194.852 109.214 192.92 111.173 190.547 111.173ZM156.799 70.8024C154.729 70.8024 153.046 72.4859 153.046 74.5554V106.841C153.046 108.911 154.729 110.594 156.799 110.594H190.547C192.617 110.594 194.3 108.911 194.3 106.841V74.5554C194.3 72.4859 192.617 70.8024 190.547 70.8024H156.799Z" fill="#E96436"/>
<path opacity="0.8" d="M193.14 112.939H159.392C157.157 112.939 155.363 111.146 155.363 108.911V76.6252C155.363 74.3899 157.157 72.5964 159.392 72.5964H193.14C195.375 72.5964 197.169 74.3899 197.169 76.6252V108.911C197.169 111.118 195.375 112.939 193.14 112.939Z" fill="#FFDE8A"/>
<path d="M160.662 77.5081C161.226 77.5081 161.683 77.0511 161.683 76.4871C161.683 75.9233 161.226 75.4661 160.662 75.4661C160.098 75.4661 159.641 75.9233 159.641 76.4871C159.641 77.0511 160.098 77.5081 160.662 77.5081Z" fill="#E96436"/>
<path d="M163.531 77.5081C164.095 77.5081 164.552 77.0511 164.552 76.4871C164.552 75.9233 164.095 75.4661 163.531 75.4661C162.967 75.4661 162.51 75.9233 162.51 76.4871C162.51 77.0511 162.967 77.5081 163.531 77.5081Z" fill="#E96436"/>
<path d="M166.429 77.5081C166.993 77.5081 167.45 77.0511 167.45 76.4871C167.45 75.9233 166.993 75.4661 166.429 75.4661C165.865 75.4661 165.408 75.9233 165.408 76.4871C165.408 77.0511 165.865 77.5081 166.429 77.5081Z" fill="black"/>
<path d="M190.023 83.4685H161.684C160.607 83.4685 159.752 82.613 159.752 81.5367C159.752 80.4607 160.607 79.6052 161.684 79.6052H190.023C191.099 79.6052 191.955 80.4607 191.955 81.5367C191.955 82.613 191.099 83.4685 190.023 83.4685Z" fill="#EAEAEA"/>
<path d="M171.451 86.835H160.248V98.0382H171.451V86.835Z" fill="#EAEAEA"/>
<path d="M192.284 86.835H173.658V98.0382H192.284V86.835Z" fill="#EAEAEA"/>
<path d="M175.425 109.656C175.452 109.683 175.507 109.683 175.535 109.711C175.59 109.739 175.645 109.766 175.701 109.766C175.756 109.766 175.811 109.766 175.866 109.766C175.922 109.766 175.977 109.739 176.004 109.683C176.06 109.656 176.087 109.628 176.115 109.573C176.142 109.545 176.142 109.518 176.17 109.463C176.198 109.38 176.198 109.325 176.17 109.242C176.142 109.214 176.142 109.187 176.115 109.132C176.087 109.076 176.032 109.021 175.977 108.994C175.949 108.966 175.894 108.966 175.866 108.938C175.811 108.911 175.756 108.883 175.701 108.883C175.645 108.883 175.59 108.883 175.535 108.883C175.48 108.883 175.425 108.911 175.397 108.966C175.342 108.994 175.314 109.021 175.287 109.076C175.259 109.104 175.259 109.132 175.232 109.187C175.204 109.27 175.204 109.325 175.232 109.407C175.259 109.435 175.259 109.463 175.287 109.518C175.314 109.573 175.369 109.628 175.425 109.656Z" fill="#E96436"/>
<path d="M183.233 109.187C183.757 109.187 183.757 108.359 183.233 108.359C182.709 108.359 182.709 109.187 183.233 109.187Z" fill="#E96436"/>
<path d="M174.045 111.367C174.569 111.367 174.569 110.539 174.045 110.539C173.493 110.539 173.493 111.367 174.045 111.367Z" fill="#E96436"/>
<path d="M186.213 108.773C186.738 108.773 186.738 107.945 186.213 107.945C185.689 107.945 185.689 108.773 186.213 108.773Z" fill="#E96436"/>
<path d="M186.959 111.256C187.483 111.256 187.483 110.428 186.959 110.428C186.407 110.428 186.407 111.256 186.959 111.256Z" fill="#E96436"/>
<path d="M181.275 111.035C181.8 111.035 181.8 110.208 181.275 110.208C180.723 110.208 180.723 111.035 181.275 111.035Z" fill="#E96436"/>
<path d="M194.851 94.4788C195.376 94.4788 195.376 93.651 194.851 93.651C194.3 93.651 194.3 94.4788 194.851 94.4788Z" fill="#E96436"/>
<path d="M195.956 89.843C196.48 89.843 196.48 89.0153 195.956 89.0153C195.431 89.0153 195.431 89.843 195.956 89.843Z" fill="#E96436"/>
<path d="M193.139 99.1973C193.664 99.1973 193.664 98.3695 193.139 98.3695C192.615 98.3695 192.615 99.1973 193.139 99.1973Z" fill="#E96436"/>
<path d="M190.961 107.752C191.485 107.752 191.485 106.924 190.961 106.924C190.409 106.924 190.409 107.752 190.961 107.752Z" fill="#E96436"/>
<path d="M191.927 104.882C192.451 104.882 192.451 104.054 191.927 104.054C191.402 104.054 191.402 104.882 191.927 104.882Z" fill="#E96436"/>
<path d="M180.363 109.766C180.887 109.766 180.887 108.938 180.363 108.938C179.811 108.938 179.811 109.766 180.363 109.766Z" fill="#E96436"/>
<path d="M177.467 111.449C177.991 111.449 177.991 110.621 177.467 110.621C176.915 110.621 176.915 111.449 177.467 111.449Z" fill="#E96436"/>
<path d="M184.144 110.815C184.669 110.815 184.669 109.987 184.144 109.987C183.592 109.987 183.592 110.815 184.144 110.815Z" fill="#E96436"/>
<path d="M191.649 102.205C192.173 102.205 192.173 101.377 191.649 101.377C191.125 101.377 191.125 102.205 191.649 102.205Z" fill="#E96436"/>
<path d="M188.476 106.786C189 106.786 189 105.958 188.476 105.958C187.952 105.958 187.924 106.786 188.476 106.786Z" fill="#E96436"/>
<path d="M190.546 111.367C191.07 111.367 191.07 110.539 190.546 110.539C190.021 110.539 190.021 111.367 190.546 111.367Z" fill="#E96436"/>
<path d="M195.237 104.247C195.761 104.247 195.761 103.42 195.237 103.42C194.713 103.42 194.713 104.247 195.237 104.247Z" fill="#E96436"/>
<path d="M188.476 109.38C189 109.38 189 108.552 188.476 108.552C187.952 108.552 187.924 109.38 188.476 109.38Z" fill="#E96436"/>
<path d="M191.927 109.849C192.451 109.849 192.451 109.021 191.927 109.021C191.402 109.021 191.402 109.849 191.927 109.849Z" fill="#E96436"/>
<path d="M195.375 97.321C195.899 97.321 195.899 96.4933 195.375 96.4933C194.823 96.4933 194.823 97.321 195.375 97.321Z" fill="#E96436"/>
<path d="M195.569 99.8046C196.093 99.8046 196.093 98.9766 195.569 98.9766C195.045 98.9766 195.045 99.8046 195.569 99.8046Z" fill="#E96436"/>
<path d="M194.355 101.984C194.88 101.984 194.88 101.157 194.355 101.157C193.803 101.157 193.803 101.984 194.355 101.984Z" fill="#E96436"/>
<path d="M193.94 106.676C194.464 106.676 194.464 105.848 193.94 105.848C193.416 105.848 193.416 106.676 193.94 106.676Z" fill="#E96436"/>
<path d="M194.962 108.138C195.486 108.138 195.486 107.31 194.962 107.31C194.437 107.31 194.437 108.138 194.962 108.138Z" fill="#E96436"/>
<path d="M167.588 111.422C168.113 111.422 168.113 110.594 167.588 110.594C167.064 110.594 167.064 111.422 167.588 111.422Z" fill="#E96436"/>
<path d="M170.927 111.173C171.451 111.173 171.451 110.345 170.927 110.345C170.403 110.345 170.375 111.173 170.927 111.173Z" fill="#E96436"/>
<path opacity="0.66" d="M182.958 63.7107H119.794C116.649 63.7107 114.082 61.1445 114.082 57.9987V57.0052C114.082 53.8595 116.649 51.2932 119.794 51.2932H182.958C186.104 51.2932 188.67 53.8595 188.67 57.0052V57.9987C188.67 61.1445 186.104 63.7107 182.958 63.7107Z" fill="black"/>
<path d="M139.746 56.7295H119.188C118.581 56.7295 118.111 56.2605 118.111 55.6533C118.111 55.0463 118.581 54.5773 119.188 54.5773H139.746C140.353 54.5773 140.822 55.0463 140.822 55.6533C140.822 56.2328 140.353 56.7295 139.746 56.7295Z" fill="#FFDE8A"/>
<path d="M183.29 60.3994H119.188C118.581 60.3994 118.111 59.9302 118.111 59.3232C118.111 58.7162 118.581 58.2469 119.188 58.2469H183.29C183.897 58.2469 184.366 58.7162 184.366 59.3232C184.366 59.9302 183.897 60.3994 183.29 60.3994Z" fill="#FFDE8A"/>
<path d="M57.8722 143.928C57.7067 143.928 57.5962 143.817 57.5962 143.652C57.5962 143.072 57.1547 142.769 56.6029 142.41C56.0234 142.024 55.3887 141.61 55.3887 140.727C55.3887 139.844 56.0509 139.402 56.6029 139.044C57.1272 138.685 57.5962 138.382 57.5962 137.802C57.5962 137.223 57.1547 136.919 56.6029 136.56C56.0234 136.174 55.3887 135.76 55.3887 134.877C55.3887 133.994 56.0509 133.58 56.6029 133.194C57.1272 132.835 57.5962 132.531 57.5962 131.952C57.5962 131.372 57.1547 131.069 56.6029 130.71C56.0234 130.324 55.3887 129.91 55.3887 129.027C55.3887 128.144 56.0509 127.73 56.6029 127.344C57.1272 126.985 57.5962 126.709 57.5962 126.102C57.5962 125.495 57.1547 125.219 56.6029 124.86C56.0234 124.474 55.3887 124.06 55.3887 123.177C55.3887 122.294 56.0509 121.88 56.6029 121.494C57.1272 121.135 57.5962 120.831 57.5962 120.252C57.5962 119.672 57.1547 119.369 56.6029 119.01C56.0234 118.624 55.3887 118.21 55.3887 117.327C55.3887 116.444 56.0509 116.03 56.6029 115.644C57.1272 115.285 57.5962 114.981 57.5962 114.402C57.5962 113.822 57.1547 113.519 56.6029 113.16C56.0234 112.774 55.3887 112.36 55.3887 111.477C55.3887 110.594 56.0509 110.18 56.6029 109.794C57.1272 109.435 57.5962 109.131 57.5962 108.552C57.5962 108.386 57.7067 108.276 57.8722 108.276C58.0377 108.276 58.1482 108.386 58.1482 108.552C58.1482 109.435 57.4859 109.849 56.9339 110.235C56.4097 110.594 55.9404 110.87 55.9404 111.477C55.9404 112.084 56.3822 112.36 56.9339 112.718C57.5134 113.105 58.1482 113.519 58.1482 114.402C58.1482 115.285 57.4859 115.699 56.9339 116.085C56.4097 116.444 55.9404 116.748 55.9404 117.327C55.9404 117.906 56.3822 118.21 56.9339 118.569C57.5134 118.955 58.1482 119.369 58.1482 120.252C58.1482 121.135 57.4859 121.549 56.9339 121.935C56.4097 122.294 55.9404 122.598 55.9404 123.177C55.9404 123.757 56.3822 124.06 56.9339 124.419C57.5134 124.805 58.1482 125.219 58.1482 126.102C58.1482 126.985 57.4859 127.399 56.9339 127.785C56.4097 128.144 55.9404 128.42 55.9404 129.027C55.9404 129.634 56.3822 129.91 56.9339 130.269C57.5134 130.655 58.1482 131.069 58.1482 131.952C58.1482 132.835 57.4859 133.277 56.9339 133.635C56.4097 133.994 55.9404 134.297 55.9404 134.877C55.9404 135.456 56.3822 135.76 56.9339 136.119C57.5134 136.505 58.1482 136.919 58.1482 137.802C58.1482 138.685 57.4859 139.126 56.9339 139.485C56.4097 139.844 55.9404 140.148 55.9404 140.727C55.9404 141.307 56.3822 141.61 56.9339 141.969C57.5134 142.355 58.1482 142.769 58.1482 143.652C58.1482 143.79 58.0377 143.928 57.8722 143.928Z" fill="#E96436"/>
<path d="M151.749 138.851H147.306C146.727 138.851 146.258 138.382 146.258 137.802V133.36C146.258 132.78 146.727 132.311 147.306 132.311H151.749C152.329 132.311 152.798 132.78 152.798 133.36C152.798 133.525 152.687 133.635 152.522 133.635C152.356 133.635 152.246 133.525 152.246 133.36C152.246 133.084 152.025 132.863 151.749 132.863H147.306C147.03 132.863 146.81 133.084 146.81 133.36V137.802C146.81 138.078 147.03 138.299 147.306 138.299H151.749C152.025 138.299 152.246 138.078 152.246 137.802V136.395C152.246 136.229 152.356 136.119 152.522 136.119C152.687 136.119 152.798 136.229 152.798 136.395V137.802C152.825 138.382 152.329 138.851 151.749 138.851Z" fill="#E96436"/>
<path d="M150.81 137.113L149.265 135.567C149.154 135.457 149.154 135.291 149.265 135.181C149.375 135.071 149.54 135.071 149.651 135.181L150.782 136.312L155.39 131.594C155.501 131.483 155.666 131.483 155.777 131.594C155.887 131.704 155.887 131.87 155.777 131.98L150.81 137.113Z" fill="#E96436"/>
<path d="M160.496 134.242H155.611V135.567H160.496V134.242Z" fill="#EAEAEA"/>
<path d="M164.938 137.112H155.611V138.437H164.938V137.112Z" fill="#EAEAEA"/>
<path d="M158.73 127.261H154.26C153.68 127.261 153.211 126.792 153.211 126.212V121.769C153.211 121.19 153.68 120.721 154.26 120.721H158.702C159.282 120.721 159.751 121.19 159.751 121.769C159.751 121.935 159.64 122.045 159.475 122.045C159.309 122.045 159.199 121.935 159.199 121.769C159.199 121.493 158.978 121.273 158.702 121.273H154.26C153.984 121.273 153.763 121.493 153.763 121.769V126.212C153.763 126.488 153.984 126.709 154.26 126.709H158.702C158.978 126.709 159.199 126.488 159.199 126.212V124.805C159.199 124.639 159.309 124.529 159.475 124.529C159.64 124.529 159.751 124.639 159.751 124.805V126.212C159.778 126.792 159.309 127.261 158.73 127.261Z" fill="#E96436"/>
<path d="M157.765 125.495L156.219 123.95C156.109 123.839 156.109 123.673 156.219 123.563C156.33 123.453 156.495 123.453 156.606 123.563L157.737 124.695L162.345 119.976C162.456 119.866 162.621 119.866 162.732 119.976C162.842 120.086 162.842 120.252 162.732 120.362L157.765 125.495Z" fill="#E96436"/>
<path d="M167.451 122.652H162.566V123.977H167.451V122.652Z" fill="#EAEAEA"/>
<path d="M171.893 125.522H162.566V126.847H171.893V125.522Z" fill="#EAEAEA"/>
<path d="M177.024 138.851H172.582C172.002 138.851 171.533 138.382 171.533 137.802V133.36C171.533 132.78 172.002 132.311 172.582 132.311H177.024C177.604 132.311 178.073 132.78 178.073 133.36C178.073 133.525 177.963 133.635 177.797 133.635C177.631 133.635 177.521 133.525 177.521 133.36C177.521 133.084 177.3 132.863 177.024 132.863H172.582C172.306 132.863 172.085 133.084 172.085 133.36V137.802C172.085 138.078 172.306 138.299 172.582 138.299H177.024C177.3 138.299 177.521 138.078 177.521 137.802V136.395C177.521 136.229 177.631 136.119 177.797 136.119C177.963 136.119 178.073 136.229 178.073 136.395V137.802C178.073 138.382 177.604 138.851 177.024 138.851Z" fill="#E96436"/>
<path d="M176.06 137.113L174.514 135.567C174.404 135.457 174.404 135.291 174.514 135.181C174.625 135.071 174.79 135.071 174.901 135.181L176.032 136.312L180.64 131.594C180.751 131.483 180.916 131.483 181.027 131.594C181.137 131.704 181.137 131.87 181.027 131.98L176.06 137.113Z" fill="#E96436"/>
<path d="M185.746 134.242H180.861V135.567H185.746V134.242Z" fill="#EAEAEA"/>
<path d="M190.188 137.112H180.861V138.437H190.188V137.112Z" fill="#EAEAEA"/>
<path d="M183.98 127.261H179.537C178.958 127.261 178.488 126.792 178.488 126.212V121.769C178.488 121.19 178.958 120.721 179.537 120.721H183.98C184.559 120.721 185.028 121.19 185.028 121.769C185.028 121.935 184.918 122.045 184.752 122.045C184.587 122.045 184.476 121.935 184.476 121.769C184.476 121.493 184.256 121.273 183.98 121.273H179.537C179.261 121.273 179.04 121.493 179.04 121.769V126.212C179.04 126.488 179.261 126.709 179.537 126.709H183.98C184.256 126.709 184.476 126.488 184.476 126.212V124.805C184.476 124.639 184.587 124.529 184.752 124.529C184.918 124.529 185.028 124.639 185.028 124.805V126.212C185.028 126.792 184.559 127.261 183.98 127.261Z" fill="#E96436"/>
<path d="M183.04 125.495L181.495 123.95C181.385 123.839 181.385 123.673 181.495 123.563C181.605 123.453 181.771 123.453 181.881 123.563L183.013 124.695L187.621 119.976C187.731 119.866 187.897 119.866 188.007 119.976C188.118 120.086 188.118 120.252 188.007 120.362L183.04 125.495Z" fill="#E96436"/>
<path d="M192.726 122.652H187.842V123.977H192.726V122.652Z" fill="#EAEAEA"/>
<path d="M197.169 125.522H187.842V126.847H197.169V125.522Z" fill="#EAEAEA"/>
<path d="M144.658 82.5303H139.773V83.8548H144.658V82.5303Z" fill="#EAEAEA"/>
<path d="M144.658 88.27H139.773V89.5945H144.658V88.27Z" fill="#EAEAEA"/>
<path d="M149.1 85.4H139.773V86.7245H149.1V85.4Z" fill="#EAEAEA"/>
<path d="M149.1 91.14H139.773V92.4645H149.1V91.14Z" fill="#EAEAEA"/>
<path d="M15.1553 136.257C14.2171 136.257 13.4997 136.064 13.1133 135.65C11.0438 133.332 9.25012 125.523 9.16734 125.191C9.13974 125.054 9.22252 124.888 9.38809 124.86C9.52607 124.833 9.69164 124.916 9.71922 125.081C9.74682 125.164 11.5681 133.084 13.5549 135.291C14.769 136.643 21.3089 134.601 26.5795 132.946C29.6148 132.007 32.457 131.097 34.1955 130.876C37.7 130.407 41.508 128.503 42.9983 126.488C43.4673 125.826 43.688 125.219 43.5778 124.695C43.1638 122.184 40.9285 116.416 40.901 116.361C40.8458 116.223 40.9285 116.058 41.0665 116.003C41.2045 115.947 41.37 116.03 41.4253 116.168C41.508 116.416 43.688 122.046 44.1295 124.612C44.24 125.302 44.0193 126.047 43.4398 126.82C41.8668 128.972 37.9208 130.959 34.2783 131.428C32.595 131.649 29.7528 132.532 26.745 133.47C22.3023 134.85 17.8044 136.257 15.1553 136.257Z" fill="#E96436"/>
<path d="M18.6323 132.421C20.8573 132.421 22.6611 130.617 22.6611 128.392C22.6611 126.167 20.8573 124.364 18.6323 124.364C16.4073 124.364 14.6035 126.167 14.6035 128.392C14.6035 130.617 16.4073 132.421 18.6323 132.421Z" fill="#FFDE8A"/>
<path d="M38.1864 118.04L24.5977 122.386L25.1019 123.963L38.6907 119.617L38.1864 118.04Z" fill="#FFDE8A"/>
<path d="M39.1298 120.992L25.541 125.338L26.0453 126.915L39.634 122.569L39.1298 120.992Z" fill="#FFDE8A"/>
<path d="M40.0653 123.918L26.4766 128.263L26.9808 129.84L40.5696 125.495L40.0653 123.918Z" fill="#FFDE8A"/>
<path d="M162.593 26.4583C160.248 26.4583 157.406 25.796 155.115 24.6094C153.598 23.8368 150.783 22.9261 147.775 21.9879C141.815 20.1115 135.661 18.1523 135.385 15.9999C135.027 12.9093 138.007 5.48641 138.145 5.18286C138.2 5.04488 138.365 4.96211 138.503 5.01728C138.641 5.07248 138.724 5.23806 138.669 5.37603C138.641 5.45881 135.606 12.9921 135.965 15.9447C136.186 17.7384 142.725 19.808 147.968 21.4912C151.004 22.457 153.846 23.3677 155.391 24.1403C158.537 25.7683 162.731 26.3755 165.132 25.5753C165.905 25.3268 166.402 24.9405 166.65 24.4438C167.754 22.1535 169.216 16.1379 169.244 16.0827C169.271 15.9447 169.437 15.8343 169.575 15.8895C169.713 15.9171 169.823 16.0827 169.768 16.2207C169.713 16.469 168.278 22.3191 167.147 24.6922C166.843 25.3268 166.236 25.796 165.325 26.127C164.525 26.3203 163.587 26.4583 162.593 26.4583Z" fill="#E96436"/>
<path d="M144.05 17.2417C146.275 17.2417 148.079 15.4379 148.079 13.2129C148.079 10.9878 146.275 9.18408 144.05 9.18408C141.825 9.18408 140.021 10.9878 140.021 13.2129C140.021 15.4379 141.825 17.2417 144.05 17.2417Z" fill="#FFDE8A"/>
<path d="M166.015 15.9312L152.388 11.7112L151.898 13.2927L165.526 17.5127L166.015 15.9312Z" fill="#FFDE8A"/>
<path d="M165.111 18.8569L151.484 14.637L150.994 16.2184L164.621 20.4384L165.111 18.8569Z" fill="#FFDE8A"/>
<path d="M164.197 21.8098L150.57 17.5898L150.08 19.1713L163.707 23.3913L164.197 21.8098Z" fill="#FFDE8A"/>
<path d="M35.0514 137.361C35.5756 137.361 35.5756 136.533 35.0514 136.533C34.5271 136.533 34.5271 137.361 35.0514 137.361Z" fill="#E96436"/>
<path d="M25.6979 140.451C26.2221 140.451 26.2221 139.623 25.6979 139.623C25.1736 139.623 25.1736 140.451 25.6979 140.451Z" fill="#E96436"/>
<path d="M38.0319 136.947C38.5561 136.947 38.5561 136.119 38.0319 136.119C37.5076 136.119 37.5076 136.947 38.0319 136.947Z" fill="#E96436"/>
<path d="M32.1809 134.656C32.7052 134.656 32.7052 133.828 32.1809 133.828C31.6567 133.828 31.6292 134.656 32.1809 134.656Z" fill="#E96436"/>
<path d="M38.7771 139.43C39.3013 139.43 39.3013 138.603 38.7771 138.603C38.2253 138.603 38.2253 139.43 38.7771 139.43Z" fill="#E96436"/>
<path d="M32.9264 140.12C33.4506 140.12 33.4506 139.292 32.9264 139.292C32.4021 139.292 32.4021 140.12 32.9264 140.12Z" fill="#E96436"/>
<path d="M42.7773 130.186C43.3015 130.186 43.3015 129.359 42.7773 129.359C42.2253 129.359 42.2253 130.186 42.7773 130.186Z" fill="#E96436"/>
<path d="M36.5963 134.243C37.1206 134.243 37.1206 133.415 36.5963 133.415C36.0721 133.415 36.0721 134.243 36.5963 134.243Z" fill="#E96436"/>
<path d="M49.3737 122.266C49.8979 122.266 49.8979 121.439 49.3737 121.439C48.8494 121.439 48.8494 122.266 49.3737 122.266Z" fill="#E96436"/>
<path d="M47.5787 122.266C48.1032 122.266 48.1032 121.439 47.5787 121.439C47.0545 121.439 47.0545 122.266 47.5787 122.266Z" fill="#E96436"/>
<path d="M47.8007 118.045C48.325 118.045 48.325 117.217 47.8007 117.217C47.2487 117.217 47.2487 118.045 47.8007 118.045Z" fill="#E96436"/>
<path d="M41.9785 114.54C42.5027 114.54 42.5027 113.712 41.9785 113.712C41.4265 113.712 41.4265 114.54 41.9785 114.54Z" fill="#E96436"/>
<path d="M44.9576 116.251C45.4821 116.251 45.4821 115.423 44.9576 115.423C44.4334 115.423 44.4334 116.251 44.9576 116.251Z" fill="#E96436"/>
<path d="M15.9557 138.603C16.48 138.603 16.48 137.775 15.9557 137.775C15.4314 137.775 15.4314 138.603 15.9557 138.603Z" fill="#E96436"/>
<path d="M44.9576 121.411C45.4821 121.411 45.4821 120.583 44.9576 120.583C44.4334 120.583 44.4334 121.411 44.9576 121.411Z" fill="#E96436"/>
<path d="M46.778 120.059C47.3022 120.059 47.3022 119.231 46.778 119.231C46.2537 119.231 46.2537 120.059 46.778 120.059Z" fill="#E96436"/>
<path d="M39.1627 133.828C39.687 133.828 39.687 133 39.1627 133C38.6385 133 38.6385 133.828 39.1627 133.828Z" fill="#E96436"/>
<path d="M43.3574 136.533C43.8816 136.533 43.8816 135.705 43.3574 135.705C42.8054 135.705 42.8054 136.533 43.3574 136.533Z" fill="#E96436"/>
<path d="M45.7584 132.67C46.2827 132.67 46.2827 131.842 45.7584 131.842C45.2342 131.842 45.2342 132.67 45.7584 132.67Z" fill="#E96436"/>
<path d="M32.1809 137.94C32.7052 137.94 32.7052 137.112 32.1809 137.112C31.6567 137.112 31.6292 137.94 32.1809 137.94Z" fill="#E96436"/>
<path d="M41.3697 132.256C41.8942 132.256 41.8942 131.428 41.3697 131.428C40.8455 131.428 40.8455 132.256 41.3697 132.256Z" fill="#E96436"/>
<path d="M27.6276 134.656C28.1518 134.656 28.1518 133.828 27.6276 133.828C27.1033 133.828 27.1033 134.656 27.6276 134.656Z" fill="#E96436"/>
<path d="M28.7322 138.189C29.2564 138.189 29.2564 137.361 28.7322 137.361C28.1804 137.361 28.1804 138.189 28.7322 138.189Z" fill="#E96436"/>
<path d="M25.6979 137.554C26.2221 137.554 26.2221 136.726 25.6979 136.726C25.1736 136.726 25.1736 137.554 25.6979 137.554Z" fill="#E96436"/>
<path d="M29.1178 140.534C29.642 140.534 29.642 139.706 29.1178 139.706C28.5935 139.706 28.5935 140.534 29.1178 140.534Z" fill="#E96436"/>
<path d="M35.7955 139.899C36.3198 139.899 36.3198 139.071 35.7955 139.071C35.2713 139.071 35.2713 139.899 35.7955 139.899Z" fill="#E96436"/>
<path d="M43.7428 133.083C44.2673 133.083 44.2673 132.255 43.7428 132.255C43.2185 132.255 43.2185 133.083 43.7428 133.083Z" fill="#E96436"/>
<path d="M49.3737 128.42C49.8979 128.42 49.8979 127.592 49.3737 127.592C48.8494 127.592 48.8494 128.42 49.3737 128.42Z" fill="#E96436"/>
<path d="M41.9785 134.849C42.5027 134.849 42.5027 134.022 41.9785 134.022C41.4265 134.022 41.4265 134.849 41.9785 134.849Z" fill="#E96436"/>
<path d="M42.3639 139.568C42.8884 139.568 42.8884 138.74 42.3639 138.74C41.8396 138.74 41.8396 139.568 42.3639 139.568Z" fill="#E96436"/>
<path d="M40.5709 141.334C41.0952 141.334 41.0952 140.506 40.5709 140.506C40.0467 140.506 40.0467 141.334 40.5709 141.334Z" fill="#E96436"/>
<path d="M44.1569 141.472C44.6811 141.472 44.6811 140.644 44.1569 140.644C43.6326 140.644 43.6326 141.472 44.1569 141.472Z" fill="#E96436"/>
<path d="M47.5787 140.948C48.1032 140.948 48.1032 140.12 47.5787 140.12C47.0545 140.12 47.0545 140.948 47.5787 140.948Z" fill="#E96436"/>
<path d="M48.5731 136.533C49.0973 136.533 49.0973 135.705 48.5731 135.705C48.0486 135.705 48.0486 136.533 48.5731 136.533Z" fill="#E96436"/>
<path d="M48.9869 138.603C49.5112 138.603 49.5112 137.775 48.9869 137.775C48.4627 137.775 48.4627 138.603 48.9869 138.603Z" fill="#E96436"/>
<path d="M48.5731 132.007C49.0973 132.007 49.0973 131.179 48.5731 131.179C48.0486 131.179 48.0486 132.007 48.5731 132.007Z" fill="#E96436"/>
<path d="M40.2936 137.554C40.8178 137.554 40.8178 136.726 40.2936 136.726C39.7693 136.726 39.7693 137.554 40.2936 137.554Z" fill="#E96436"/>
<path d="M45.7584 138.603C46.2827 138.603 46.2827 137.775 45.7584 137.775C45.2342 137.775 45.2342 138.603 45.7584 138.603Z" fill="#E96436"/>
<path d="M47.1933 125.523C47.7175 125.523 47.7175 124.695 47.1933 124.695C46.6413 124.695 46.6413 125.523 47.1933 125.523Z" fill="#E96436"/>
<path d="M44.9576 126.516C45.4821 126.516 45.4821 125.688 44.9576 125.688C44.4334 125.688 44.4334 126.516 44.9576 126.516Z" fill="#E96436"/>
<path d="M44.1569 118.872C44.6811 118.872 44.6811 118.045 44.1569 118.045C43.6326 118.045 43.6326 118.872 44.1569 118.872Z" fill="#E96436"/>
<path d="M48.9869 124.722C49.5112 124.722 49.5112 123.894 48.9869 123.894C48.4627 123.894 48.4627 124.722 48.9869 124.722Z" fill="#E96436"/>
<path d="M47.3856 128.006C47.9098 128.006 47.9098 127.178 47.3856 127.178C46.8611 127.178 46.8611 128.006 47.3856 128.006Z" fill="#E96436"/>
<path d="M46.1716 130.186C46.6961 130.186 46.6961 129.359 46.1716 129.359C45.6199 129.359 45.6199 130.186 46.1716 130.186Z" fill="#E96436"/>
<path d="M47.8007 134.022C48.325 134.022 48.325 133.194 47.8007 133.194C47.2487 133.194 47.2487 134.022 47.8007 134.022Z" fill="#E96436"/>
<path d="M46.778 136.312C47.3022 136.312 47.3022 135.484 46.778 135.484C46.2537 135.484 46.2537 136.312 46.778 136.312Z" fill="#E96436"/>
<path d="M20.0397 140.865C20.564 140.865 20.564 140.037 20.0397 140.037C19.5154 140.037 19.5154 140.865 20.0397 140.865Z" fill="#E96436"/>
<path d="M12.4518 137.775C12.9761 137.775 12.9761 136.947 12.4518 136.947C11.9275 136.947 11.9275 137.775 12.4518 137.775Z" fill="#E96436"/>
<path d="M22.9921 136.533C23.5164 136.533 23.5164 135.705 22.9921 135.705C22.4401 135.705 22.4401 136.533 22.9921 136.533Z" fill="#E96436"/>
<path d="M22.9921 139.568C23.5164 139.568 23.5164 138.74 22.9921 138.74C22.4401 138.74 22.4401 139.568 22.9921 139.568Z" fill="#E96436"/>
<path d="M18.8542 137.968C19.3785 137.968 19.3785 137.14 18.8542 137.14C18.3299 137.14 18.3299 137.968 18.8542 137.968Z" fill="#E96436"/>
<path d="M5.63532 109.49C5.46975 109.49 5.35938 109.38 5.35938 109.214V101.156C5.35938 100.991 5.46975 100.88 5.63532 100.88C5.80087 100.88 5.91125 100.991 5.91125 101.156V109.214C5.91125 109.38 5.80087 109.49 5.63532 109.49Z" fill="#E96436"/>
<path d="M7.43025 110.18C7.2647 110.18 7.1543 110.07 7.1543 109.904V101.847C7.1543 101.681 7.2647 101.571 7.43025 101.571C7.59582 101.571 7.7062 101.681 7.7062 101.847V109.904C7.7062 110.042 7.59582 110.18 7.43025 110.18Z" fill="#E96436"/>
<path d="M10.3265 108.248C10.299 108.248 10.2714 108.248 10.2438 108.221L2.68286 105.461C2.54488 105.406 2.4621 105.241 2.51728 105.103C2.57248 104.965 2.73806 104.882 2.87603 104.937L10.4369 107.724C10.5749 107.779 10.6577 107.945 10.6025 108.083C10.5473 108.193 10.4369 108.248 10.3265 108.248Z" fill="#E96436"/>
<path d="M10.3265 105.462C10.299 105.462 10.2714 105.462 10.2438 105.434L2.68286 102.675C2.54488 102.619 2.4621 102.454 2.51728 102.316C2.57248 102.178 2.73806 102.095 2.87603 102.15L10.4369 104.937C10.5749 104.992 10.6577 105.158 10.6025 105.296C10.5473 105.406 10.4369 105.462 10.3265 105.462Z" fill="#E96436"/>
<path d="M150.092 44.3395C149.927 44.3395 149.816 44.229 149.816 44.0635V36.006C149.816 35.8402 149.927 35.73 150.092 35.73C150.258 35.73 150.368 35.8402 150.368 36.006V44.0635C150.368 44.2015 150.23 44.3395 150.092 44.3395Z" fill="#E96436"/>
<path d="M151.887 45.0017C151.722 45.0017 151.611 44.8915 151.611 44.726V36.6682C151.611 36.5027 151.722 36.3922 151.887 36.3922C152.053 36.3922 152.163 36.5027 152.163 36.6682V44.726C152.163 44.8915 152.025 45.0017 151.887 45.0017Z" fill="#E96436"/>
<path d="M154.783 43.0699C154.756 43.0699 154.728 43.0699 154.701 43.0424L147.14 40.2554C147.002 40.2002 146.919 40.0347 146.974 39.8967C147.029 39.7587 147.195 39.6759 147.333 39.7312L154.894 42.5182C155.032 42.5734 155.115 42.7389 155.059 42.8769C154.977 43.0149 154.894 43.0699 154.783 43.0699Z" fill="#E96436"/>
<path d="M154.783 40.3105C154.756 40.3105 154.728 40.3105 154.701 40.283L147.14 37.496C147.002 37.4408 146.919 37.2753 146.974 37.1373C147.029 36.9993 147.195 36.9165 147.333 36.9718L154.894 39.7588C155.032 39.8138 155.115 39.9795 155.059 40.1175C154.977 40.2278 154.894 40.3105 154.783 40.3105Z" fill="#E96436"/>
<path d="M56.2449 37.3579H56.2174L48.2424 36.3094C48.1044 36.2817 47.9941 36.1439 47.9941 36.0059C48.0216 35.8679 48.1596 35.7574 48.2976 35.7574L56.2724 36.8062C56.4104 36.8337 56.5209 36.9717 56.5209 37.1097C56.5209 37.2752 56.3829 37.3579 56.2449 37.3579Z" fill="#E96436"/>
<path d="M57.155 35.6747H57.1275L49.1525 34.626C49.0148 34.5985 48.9043 34.4605 48.9043 34.3225C48.9318 34.1845 49.0698 34.0742 49.2078 34.0742L57.1825 35.1227C57.3205 35.1505 57.431 35.2885 57.431 35.4262C57.4035 35.592 57.293 35.6747 57.155 35.6747Z" fill="#E96436"/>
<path d="M51.8831 39.7035C51.8278 39.7035 51.8003 39.7035 51.7451 39.676C51.6071 39.5933 51.5518 39.4278 51.6346 39.2898L55.3876 32.1703C55.4703 32.0323 55.6358 31.977 55.7738 32.06C55.9118 32.1428 55.9671 32.3083 55.8843 32.4463L52.1313 39.5655C52.0761 39.6485 51.9933 39.7035 51.8831 39.7035Z" fill="#E96436"/>
<path d="M49.1252 39.3172C49.0699 39.3172 49.0424 39.3172 48.9872 39.2897C48.8492 39.207 48.7939 39.0415 48.8769 38.931L52.6297 31.8117C52.7124 31.6737 52.8779 31.6185 53.0159 31.7012C53.1539 31.784 53.2092 31.9495 53.1264 32.06L49.3734 39.1792C49.3184 39.2622 49.2354 39.3172 49.1252 39.3172Z" fill="#E96436"/>
</svg>
