<?xml version="1.0" encoding="utf-8"?>
<!-- Generator: Adobe Illustrator 19.0.0, SVG Export Plug-In . SVG Version: 6.00 Build 0)  -->
<svg version="1.1" id="Capa_1" xmlns="http://www.w3.org/2000/svg" xmlns:xlink="http://www.w3.org/1999/xlink" x="0px" y="0px"
	 viewBox="209 407.9 142 26" style="enable-background:new 209 407.9 142 26;" xml:space="preserve">
<style type="text/css">
	.st0{fill:#3e1311;}
</style>
<g>
	<path class="st0" d="M221,424.2v3.3h-11.3v-3.3c0-0.6,0.2-1.1,0.4-1.5c0.5,0.5,1.1,0.8,1.8,0.8c0.4,0,0.7-0.2,1-0.4
		c0,0,0.1-0.1,0.2-0.1c0.1-0.1,0.2-0.3,0.3-0.4c0-0.1,0.1-0.1,0.1-0.2c0-0.1,0.1-0.2,0.1-0.3c0.6,0.2,1.2,0.4,1.8,0.4
		c1.2,0,2.3-0.4,3.1-1.1C219.9,421.5,221,422.7,221,424.2z M210.8,417.5c-0.1,0-0.1,0-0.2,0c0.9-1.6,2.2-2.5,2.8-2.8l0,0
		c0.6-0.3,1.2-0.5,1.9-0.5c0.7,0,1.4,0.2,1.9,0.5l0,0c0.9,0.4,3.6,2.2,3.6,5.9c0,0.7-0.1,1.3-0.1,1.3s-1.2-1.3-2.5-1.2
		c-0.7,0.7-1.8,1.2-2.9,1.2c-1.1,0-2.2-0.5-2.9-1.2c-0.4,0-0.7,0.1-1.1,0.2c0-0.1-0.1-0.1-0.1-0.2c0,0,0-0.1-0.1-0.1l0,0l-0.5-1
		c0.1,0,0.1,0,0.1,0c0.2,0,0.7-0.1,0.7-0.9C211.5,418.3,211.4,417.5,210.8,417.5z M212,418.3c0.1,1.6,1.6,2.9,3.3,2.9
		c1.8,0,3.2-1.3,3.3-3c-0.9-0.7-3.1-1.9-3.3-2.8l0,0l0,0C215.2,416.3,213,417.6,212,418.3z M212.6,422.7
		C212.6,422.7,212.7,422.7,212.6,422.7c0.2-0.2,0.3-0.4,0.4-0.6c0.1-0.2-0.9-1.1-1.1-0.8c-0.1,0.1-0.3,0.4-0.4,0.5
		c-0.1,0.1-0.2,0-0.3-0.1c-0.2-0.3-0.4-0.7-0.6-1.1l0,0c0,0,0,0,0,0c0,0,0,0,0,0v0c-0.2-0.3-0.4-0.7-0.6-1.1c-0.1-0.1,0-0.3,0.1-0.3
		c0.1,0,0.5,0,0.7,0c0.4,0,0.2-1.3,0-1.3c-0.2,0-0.4-0.1-0.7-0.1c0,0-0.1,0-0.1,0c-0.8,0.2-1.3,1.2-0.9,2.1c0.2,0.4,0.3,0.7,0.5,1.1
		l0,0c0,0,0,0,0,0c0,0,0,0,0,0l0,0c0.2,0.3,0.4,0.7,0.6,1C210.9,423,212,423.2,212.6,422.7z"/>
</g>
<g>
	<path class="st0" d="M338,408.9c6.6,0,12,5.4,12,12s-5.4,12-12,12h-97.2c-5.9,0-11.1-4.5-11.9-10.4l-0.1-0.6l-0.6-0.2l-2.4-0.9
		l2.6-1.2l0.5-0.2l0.1-0.5c1-5.8,6-10,11.8-10H338 M338,407.9h-97.2c-6.4,0-11.8,4.7-12.8,10.8l-4.7,2.2l4.6,1.8
		c0.9,6.3,6.3,11.2,12.9,11.2H338c7.2,0,13-5.8,13-13S345.2,407.9,338,407.9L338,407.9z"/>
</g>
</svg>
