<?xml version="1.0" encoding="UTF-8" standalone="no" ?>
<!DOCTYPE svg PUBLIC "-//W3C//DTD SVG 1.1//EN" "http://www.w3.org/Graphics/SVG/1.1/DTD/svg11.dtd">
<svg xmlns="http://www.w3.org/2000/svg" xmlns:xlink="http://www.w3.org/1999/xlink" version="1.1" width="1080" height="1080" viewBox="0 0 1080 1080" xml:space="preserve">
<desc>Created with Fabric.js 5.2.4</desc>
<defs>
</defs>
<rect x="0" y="0" width="100%" height="100%" fill="transparent"></rect>
<g transform="matrix(1 0 0 1 540 540)" id="c6383599-db0f-4ee4-a2c3-9508a1139685"  >
</g>
<g transform="matrix(1 0 0 1 540 540)" id="755a6c26-e312-45ed-a7a5-5f884733de40"  >
<rect style="stroke: none; stroke-width: 1; stroke-dasharray: none; stroke-linecap: butt; stroke-dashoffset: 0; stroke-linejoin: miter; stroke-miterlimit: 4; fill: rgb(255,255,255); fill-rule: nonzero; opacity: 1; visibility: hidden;" vector-effect="non-scaling-stroke"  x="-540" y="-540" rx="0" ry="0" width="1080" height="1080" />
</g>
<g transform="matrix(1 0 0 1 472 539.95)"  >
<path style="stroke: none; stroke-width: 1; stroke-dasharray: none; stroke-linecap: butt; stroke-dashoffset: 0; stroke-linejoin: miter; stroke-miterlimit: 4; fill: rgb(62,19,17); fill-rule: nonzero; opacity: 1;" vector-effect="non-scaling-stroke"  transform=" translate(-214.98, -420.85)" d="M 221 424.2 L 221 427.5 L 209.7 427.5 L 209.7 424.2 C 209.7 423.59999999999997 209.89999999999998 423.09999999999997 210.1 422.7 C 210.6 423.2 211.2 423.5 211.9 423.5 C 212.3 423.5 212.6 423.3 212.9 423.1 C 212.9 423.1 213 423 213.1 423 C 213.2 422.9 213.29999999999998 422.7 213.4 422.6 C 213.4 422.5 213.5 422.5 213.5 422.40000000000003 C 213.5 422.3 213.6 422.20000000000005 213.6 422.1 C 214.2 422.3 214.79999999999998 422.5 215.4 422.5 C 216.6 422.5 217.70000000000002 422.1 218.5 421.4 C 219.9 421.5 221 422.7 221 424.2 z M 210.8 417.5 C 210.70000000000002 417.5 210.70000000000002 417.5 210.60000000000002 417.5 C 211.50000000000003 415.9 212.8 415 213.40000000000003 414.7 L 213.40000000000003 414.7 C 214.00000000000003 414.4 214.60000000000002 414.2 215.30000000000004 414.2 C 216.00000000000003 414.2 216.70000000000005 414.4 217.20000000000005 414.7 L 217.20000000000005 414.7 C 218.10000000000005 415.09999999999997 220.80000000000004 416.9 220.80000000000004 420.59999999999997 C 220.80000000000004 421.29999999999995 220.70000000000005 421.9 220.70000000000005 421.9 C 220.70000000000005 421.9 219.50000000000006 420.59999999999997 218.20000000000005 420.7 C 217.50000000000006 421.4 216.40000000000003 421.9 215.30000000000004 421.9 C 214.20000000000005 421.9 213.10000000000005 421.4 212.40000000000003 420.7 C 212.00000000000003 420.7 211.70000000000005 420.8 211.30000000000004 420.9 C 211.30000000000004 420.79999999999995 211.20000000000005 420.79999999999995 211.20000000000005 420.7 C 211.20000000000005 420.7 211.20000000000005 420.59999999999997 211.10000000000005 420.59999999999997 L 211.10000000000005 420.59999999999997 L 210.60000000000005 419.59999999999997 C 210.70000000000005 419.59999999999997 210.70000000000005 419.59999999999997 210.70000000000005 419.59999999999997 C 210.90000000000003 419.59999999999997 211.40000000000003 419.49999999999994 211.40000000000003 418.7 C 211.5 418.3 211.4 417.5 210.8 417.5 z M 212 418.3 C 212.1 419.90000000000003 213.6 421.2 215.3 421.2 C 217.10000000000002 421.2 218.5 419.9 218.60000000000002 418.2 C 217.70000000000002 417.5 215.50000000000003 416.3 215.3 415.4 L 215.3 415.4 L 215.3 415.4 C 215.2 416.3 213 417.6 212 418.3 z M 212.6 422.7 C 212.6 422.7 212.7 422.7 212.6 422.7 C 212.79999999999998 422.5 212.9 422.3 213 422.09999999999997 C 213.1 421.9 212.1 420.99999999999994 211.9 421.29999999999995 C 211.8 421.4 211.6 421.69999999999993 211.5 421.79999999999995 C 211.4 421.9 211.3 421.79999999999995 211.2 421.69999999999993 C 211 421.3999999999999 210.79999999999998 420.99999999999994 210.6 420.5999999999999 L 210.6 420.5999999999999 C 210.6 420.5999999999999 210.6 420.5999999999999 210.6 420.5999999999999 C 210.6 420.5999999999999 210.6 420.5999999999999 210.6 420.5999999999999 L 210.6 420.5999999999999 C 210.4 420.2999999999999 210.2 419.8999999999999 210 419.4999999999999 C 209.9 419.39999999999986 210 419.1999999999999 210.1 419.1999999999999 C 210.2 419.1999999999999 210.6 419.1999999999999 210.79999999999998 419.1999999999999 C 211.2 419.1999999999999 210.99999999999997 417.89999999999986 210.79999999999998 417.89999999999986 C 210.6 417.89999999999986 210.39999999999998 417.79999999999984 210.1 417.79999999999984 C 210.1 417.79999999999984 210 417.79999999999984 210 417.79999999999984 C 209.2 417.99999999999983 208.7 418.99999999999983 209.1 419.89999999999986 C 209.29999999999998 420.29999999999984 209.4 420.59999999999985 209.6 420.9999999999999 L 209.6 420.9999999999999 C 209.6 420.9999999999999 209.6 420.9999999999999 209.6 420.9999999999999 C 209.6 420.9999999999999 209.6 420.9999999999999 209.6 420.9999999999999 L 209.6 420.9999999999999 C 209.79999999999998 421.2999999999999 210 421.6999999999999 210.2 421.9999999999999 C 210.9 423 212 423.2 212.6 422.7 z" stroke-linecap="round" />
</g>
<g transform="matrix(1.06 0 0 0.83 545.72 540.21)"  >
<path style="stroke: none; stroke-width: 1; stroke-dasharray: none; stroke-linecap: butt; stroke-dashoffset: 0; stroke-linejoin: miter; stroke-miterlimit: 4; fill: rgb(62,19,17); fill-rule: nonzero; opacity: 1;" vector-effect="non-scaling-stroke"  transform=" translate(-287.15, -420.9)" d="M 338 408.9 C 344.6 408.9 350 414.29999999999995 350 420.9 C 350 427.5 344.6 432.9 338 432.9 L 240.8 432.9 C 234.9 432.9 229.70000000000002 428.4 228.9 422.5 L 228.8 421.9 L 228.20000000000002 421.7 L 225.8 420.8 L 228.4 419.6 L 228.9 419.40000000000003 L 229 418.90000000000003 C 230 413.1 235 408.90000000000003 240.8 408.90000000000003 L 338 408.90000000000003 M 338 407.9 L 240.8 407.9 C 234.4 407.9 229 412.59999999999997 228 418.7 L 223.3 420.9 L 227.9 422.7 C 228.8 429 234.20000000000002 433.9 240.8 433.9 L 338 433.9 C 345.2 433.9 351 428.09999999999997 351 420.9 C 351 413.7 345.2 407.9 338 407.9 L 338 407.9 z" stroke-linecap="round" />
</g>
</svg>